<mxfile host="app.diagrams.net" modified="2024-01-17T15:01:03.430Z" agent="Mozilla/5.0 (Macintosh; Intel Mac OS X 10_15_7) AppleWebKit/537.36 (KHTML, like Gecko) Chrome/120.0.0.0 Safari/537.36" etag="Wp6hJsD0LMNccG62JcpY" version="22.1.16" type="device" pages="5">
  <diagram name="fix" id="pZKc-YF5wJobyb3nDvFf">
    <mxGraphModel dx="1260" dy="651" grid="1" gridSize="10" guides="1" tooltips="1" connect="1" arrows="1" fold="1" page="1" pageScale="1" pageWidth="850" pageHeight="1100" math="0" shadow="0">
      <root>
        <mxCell id="0" />
        <mxCell id="1" parent="0" />
        <mxCell id="5cd2LB1jiimj6dj2osRP-57" value="" style="shape=flexArrow;endArrow=classic;html=1;rounded=0;fillColor=#CCCCFF;" edge="1" parent="1">
          <mxGeometry width="50" height="50" relative="1" as="geometry">
            <mxPoint x="70" y="110" as="sourcePoint" />
            <mxPoint x="760" y="110" as="targetPoint" />
          </mxGeometry>
        </mxCell>
        <mxCell id="5cd2LB1jiimj6dj2osRP-28" value="Merge fix" style="rounded=1;whiteSpace=wrap;html=1;" vertex="1" parent="1">
          <mxGeometry x="120.00000000000001" y="90" width="90" height="40" as="geometry" />
        </mxCell>
        <mxCell id="5cd2LB1jiimj6dj2osRP-29" value="" style="endArrow=classic;html=1;rounded=0;exitX=0.5;exitY=1;exitDx=0;exitDy=0;entryX=0.5;entryY=0;entryDx=0;entryDy=0;" edge="1" parent="1" source="5cd2LB1jiimj6dj2osRP-28" target="5cd2LB1jiimj6dj2osRP-30">
          <mxGeometry width="50" height="50" relative="1" as="geometry">
            <mxPoint x="430" y="370" as="sourcePoint" />
            <mxPoint x="190" y="170" as="targetPoint" />
          </mxGeometry>
        </mxCell>
        <mxCell id="5cd2LB1jiimj6dj2osRP-32" value="" style="endArrow=none;html=1;rounded=0;strokeColor=#999999;dashed=1;" edge="1" parent="1">
          <mxGeometry width="50" height="50" relative="1" as="geometry">
            <mxPoint x="75" y="297.69" as="sourcePoint" />
            <mxPoint x="760" y="298" as="targetPoint" />
          </mxGeometry>
        </mxCell>
        <mxCell id="5cd2LB1jiimj6dj2osRP-34" value="Preview" style="rounded=0;whiteSpace=wrap;html=1;fillColor=#ffe6cc;strokeColor=#d79b00;" vertex="1" parent="1">
          <mxGeometry x="80" y="310" width="60" height="20" as="geometry" />
        </mxCell>
        <mxCell id="5cd2LB1jiimj6dj2osRP-35" value="" style="endArrow=none;html=1;rounded=0;strokeColor=#999999;dashed=1;" edge="1" parent="1">
          <mxGeometry width="50" height="50" relative="1" as="geometry">
            <mxPoint x="80" y="450" as="sourcePoint" />
            <mxPoint x="750" y="450" as="targetPoint" />
          </mxGeometry>
        </mxCell>
        <mxCell id="5cd2LB1jiimj6dj2osRP-36" value="Live" style="rounded=0;whiteSpace=wrap;html=1;fillColor=#d5e8d4;strokeColor=#82b366;" vertex="1" parent="1">
          <mxGeometry x="85" y="462.31" width="60" height="20" as="geometry" />
        </mxCell>
        <mxCell id="5cd2LB1jiimj6dj2osRP-37" value="Publish&lt;br&gt;pre-release" style="rounded=1;whiteSpace=wrap;html=1;" vertex="1" parent="1">
          <mxGeometry x="327.5" y="90" width="90" height="40" as="geometry" />
        </mxCell>
        <mxCell id="5cd2LB1jiimj6dj2osRP-38" value="" style="endArrow=none;dashed=1;html=1;dashPattern=12 12;strokeWidth=2;rounded=0;strokeColor=#999999;" edge="1" parent="1">
          <mxGeometry width="50" height="50" relative="1" as="geometry">
            <mxPoint x="270" y="450" as="sourcePoint" />
            <mxPoint x="270" y="80" as="targetPoint" />
          </mxGeometry>
        </mxCell>
        <mxCell id="5cd2LB1jiimj6dj2osRP-40" value="" style="endArrow=classic;html=1;rounded=0;exitX=0.5;exitY=1;exitDx=0;exitDy=0;" edge="1" parent="1" source="5cd2LB1jiimj6dj2osRP-37">
          <mxGeometry width="50" height="50" relative="1" as="geometry">
            <mxPoint x="372.02" y="176.51" as="sourcePoint" />
            <mxPoint x="373" y="170" as="targetPoint" />
          </mxGeometry>
        </mxCell>
        <mxCell id="5cd2LB1jiimj6dj2osRP-41" value="Deploy on preview" style="rounded=0;whiteSpace=wrap;html=1;fillColor=#ffe6cc;strokeColor=#d79b00;" vertex="1" parent="1">
          <mxGeometry x="310" y="170" width="125" height="40" as="geometry" />
        </mxCell>
        <mxCell id="5cd2LB1jiimj6dj2osRP-48" value="" style="endArrow=classic;html=1;rounded=0;exitX=0.5;exitY=1;exitDx=0;exitDy=0;entryX=0.5;entryY=0;entryDx=0;entryDy=0;" edge="1" parent="1" source="5cd2LB1jiimj6dj2osRP-41" target="5cd2LB1jiimj6dj2osRP-49">
          <mxGeometry width="50" height="50" relative="1" as="geometry">
            <mxPoint x="372.07" y="220" as="sourcePoint" />
            <mxPoint x="390" y="230" as="targetPoint" />
          </mxGeometry>
        </mxCell>
        <mxCell id="5cd2LB1jiimj6dj2osRP-49" value="Wait for approval" style="rounded=0;whiteSpace=wrap;html=1;fillColor=#f5f5f5;strokeColor=#666666;fontColor=#333333;" vertex="1" parent="1">
          <mxGeometry x="310" y="240.19" width="125" height="40" as="geometry" />
        </mxCell>
        <mxCell id="5cd2LB1jiimj6dj2osRP-51" value="" style="endArrow=classic;html=1;rounded=0;entryX=0;entryY=0;entryDx=0;entryDy=0;exitX=0;exitY=1;exitDx=0;exitDy=0;curved=1;strokeColor=#CCCCCC;dashed=1;" edge="1" parent="1" source="5cd2LB1jiimj6dj2osRP-41" target="5cd2LB1jiimj6dj2osRP-39">
          <mxGeometry width="50" height="50" relative="1" as="geometry">
            <mxPoint x="420" y="350" as="sourcePoint" />
            <mxPoint x="470" y="300" as="targetPoint" />
            <Array as="points">
              <mxPoint x="280" y="300" />
            </Array>
          </mxGeometry>
        </mxCell>
        <mxCell id="5cd2LB1jiimj6dj2osRP-52" value="" style="endArrow=none;dashed=1;html=1;dashPattern=12 12;strokeWidth=2;rounded=0;strokeColor=#999999;" edge="1" parent="1">
          <mxGeometry width="50" height="50" relative="1" as="geometry">
            <mxPoint x="480" y="590" as="sourcePoint" />
            <mxPoint x="480" y="70" as="targetPoint" />
          </mxGeometry>
        </mxCell>
        <mxCell id="5cd2LB1jiimj6dj2osRP-64" style="rounded=0;orthogonalLoop=1;jettySize=auto;html=1;exitX=0.5;exitY=1;exitDx=0;exitDy=0;entryX=0.5;entryY=0;entryDx=0;entryDy=0;" edge="1" parent="1" source="5cd2LB1jiimj6dj2osRP-54" target="5cd2LB1jiimj6dj2osRP-58">
          <mxGeometry relative="1" as="geometry" />
        </mxCell>
        <mxCell id="5cd2LB1jiimj6dj2osRP-54" value="Approve&lt;br&gt;pre-release" style="rounded=1;whiteSpace=wrap;html=1;" vertex="1" parent="1">
          <mxGeometry x="550" y="90" width="90" height="40" as="geometry" />
        </mxCell>
        <mxCell id="5cd2LB1jiimj6dj2osRP-62" style="rounded=0;orthogonalLoop=1;jettySize=auto;html=1;exitX=0.5;exitY=1;exitDx=0;exitDy=0;entryX=0.5;entryY=0;entryDx=0;entryDy=0;" edge="1" parent="1" source="5cd2LB1jiimj6dj2osRP-58" target="5cd2LB1jiimj6dj2osRP-60">
          <mxGeometry relative="1" as="geometry" />
        </mxCell>
        <mxCell id="5cd2LB1jiimj6dj2osRP-63" style="rounded=0;orthogonalLoop=1;jettySize=auto;html=1;exitX=0.5;exitY=1;exitDx=0;exitDy=0;entryX=0.5;entryY=0;entryDx=0;entryDy=0;" edge="1" parent="1" source="5cd2LB1jiimj6dj2osRP-58" target="5cd2LB1jiimj6dj2osRP-61">
          <mxGeometry relative="1" as="geometry" />
        </mxCell>
        <mxCell id="5cd2LB1jiimj6dj2osRP-75" style="rounded=0;orthogonalLoop=1;jettySize=auto;html=1;entryX=0;entryY=0;entryDx=0;entryDy=0;dashed=1;curved=1;strokeColor=#CCCCCC;" edge="1" parent="1" source="5cd2LB1jiimj6dj2osRP-60" target="5cd2LB1jiimj6dj2osRP-66">
          <mxGeometry relative="1" as="geometry">
            <Array as="points">
              <mxPoint x="550" y="330" />
            </Array>
          </mxGeometry>
        </mxCell>
        <mxCell id="5cd2LB1jiimj6dj2osRP-60" value="Deploy on preview" style="rounded=0;whiteSpace=wrap;html=1;fillColor=#ffe6cc;strokeColor=#d79b00;" vertex="1" parent="1">
          <mxGeometry x="500" y="240.19" width="85" height="40" as="geometry" />
        </mxCell>
        <mxCell id="5cd2LB1jiimj6dj2osRP-76" style="rounded=0;orthogonalLoop=1;jettySize=auto;html=1;exitX=1;exitY=1;exitDx=0;exitDy=0;entryX=1;entryY=0;entryDx=0;entryDy=0;dashed=1;curved=1;strokeColor=#CCCCCC;" edge="1" parent="1" source="5cd2LB1jiimj6dj2osRP-61" target="5cd2LB1jiimj6dj2osRP-74">
          <mxGeometry relative="1" as="geometry">
            <Array as="points">
              <mxPoint x="710" y="410" />
            </Array>
          </mxGeometry>
        </mxCell>
        <mxCell id="5cd2LB1jiimj6dj2osRP-61" value="Deploy on live" style="rounded=0;whiteSpace=wrap;html=1;fillColor=#d5e8d4;strokeColor=#82b366;" vertex="1" parent="1">
          <mxGeometry x="610" y="240.19" width="70" height="40" as="geometry" />
        </mxCell>
        <mxCell id="5cd2LB1jiimj6dj2osRP-67" value="" style="group" vertex="1" connectable="0" parent="1">
          <mxGeometry x="80" y="520" width="390" height="30" as="geometry" />
        </mxCell>
        <mxCell id="5cd2LB1jiimj6dj2osRP-47" value="" style="shape=crossbar;whiteSpace=wrap;html=1;rounded=1;" vertex="1" parent="5cd2LB1jiimj6dj2osRP-67">
          <mxGeometry y="5" width="390" height="20" as="geometry" />
        </mxCell>
        <mxCell id="5cd2LB1jiimj6dj2osRP-42" value="v1.0.0" style="rounded=1;whiteSpace=wrap;html=1;arcSize=8;rotation=0;fillColor=#d5e8d4;strokeColor=#82b366;" vertex="1" parent="5cd2LB1jiimj6dj2osRP-67">
          <mxGeometry x="160" width="70" height="30" as="geometry" />
        </mxCell>
        <mxCell id="5cd2LB1jiimj6dj2osRP-71" value="" style="group" vertex="1" connectable="0" parent="1">
          <mxGeometry x="490" y="360" width="250" height="30" as="geometry" />
        </mxCell>
        <mxCell id="5cd2LB1jiimj6dj2osRP-65" value="" style="shape=crossbar;whiteSpace=wrap;html=1;rounded=1;" vertex="1" parent="5cd2LB1jiimj6dj2osRP-71">
          <mxGeometry y="5" width="250" height="20" as="geometry" />
        </mxCell>
        <mxCell id="5cd2LB1jiimj6dj2osRP-66" value="v1.0.1" style="rounded=1;whiteSpace=wrap;html=1;arcSize=8;rotation=0;fillColor=#ffe6cc;strokeColor=#d79b00;" vertex="1" parent="5cd2LB1jiimj6dj2osRP-71">
          <mxGeometry x="95" width="80" height="30" as="geometry" />
        </mxCell>
        <mxCell id="5cd2LB1jiimj6dj2osRP-72" value="" style="group" vertex="1" connectable="0" parent="1">
          <mxGeometry x="490" y="520" width="250" height="30" as="geometry" />
        </mxCell>
        <mxCell id="5cd2LB1jiimj6dj2osRP-73" value="" style="shape=crossbar;whiteSpace=wrap;html=1;rounded=1;" vertex="1" parent="5cd2LB1jiimj6dj2osRP-72">
          <mxGeometry y="5" width="250" height="20" as="geometry" />
        </mxCell>
        <mxCell id="5cd2LB1jiimj6dj2osRP-74" value="v1.0.1" style="rounded=1;whiteSpace=wrap;html=1;arcSize=8;rotation=0;fillColor=#d5e8d4;strokeColor=#82b366;" vertex="1" parent="5cd2LB1jiimj6dj2osRP-72">
          <mxGeometry x="95" width="80" height="30" as="geometry" />
        </mxCell>
        <mxCell id="QiLWeh3rhh1vCK5693KF-1" value="" style="group" vertex="1" connectable="0" parent="1">
          <mxGeometry x="290" y="360" width="180" height="30" as="geometry" />
        </mxCell>
        <mxCell id="5cd2LB1jiimj6dj2osRP-53" value="" style="shape=crossbar;whiteSpace=wrap;html=1;rounded=1;" vertex="1" parent="QiLWeh3rhh1vCK5693KF-1">
          <mxGeometry y="5" width="180" height="20" as="geometry" />
        </mxCell>
        <mxCell id="5cd2LB1jiimj6dj2osRP-39" value="v1.0.1-pre.0" style="rounded=1;whiteSpace=wrap;html=1;arcSize=8;rotation=0;fillColor=#ffe6cc;strokeColor=#d79b00;" vertex="1" parent="QiLWeh3rhh1vCK5693KF-1">
          <mxGeometry x="47.5" width="80" height="30" as="geometry" />
        </mxCell>
        <mxCell id="QiLWeh3rhh1vCK5693KF-2" value="" style="group" vertex="1" connectable="0" parent="1">
          <mxGeometry x="80" y="360" width="180" height="30" as="geometry" />
        </mxCell>
        <mxCell id="5cd2LB1jiimj6dj2osRP-45" value="" style="shape=crossbar;whiteSpace=wrap;html=1;rounded=1;" vertex="1" parent="QiLWeh3rhh1vCK5693KF-2">
          <mxGeometry y="5" width="180" height="20" as="geometry" />
        </mxCell>
        <mxCell id="5cd2LB1jiimj6dj2osRP-31" value="v1.0.0" style="rounded=1;whiteSpace=wrap;html=1;arcSize=8;rotation=0;fillColor=#ffe6cc;strokeColor=#d79b00;" vertex="1" parent="QiLWeh3rhh1vCK5693KF-2">
          <mxGeometry x="55" width="70" height="30" as="geometry" />
        </mxCell>
        <mxCell id="QiLWeh3rhh1vCK5693KF-3" value="" style="group" vertex="1" connectable="0" parent="1">
          <mxGeometry x="102.5" y="170" width="147.5" height="54.620000000000005" as="geometry" />
        </mxCell>
        <mxCell id="5cd2LB1jiimj6dj2osRP-30" value="Create pre-release" style="rounded=0;whiteSpace=wrap;html=1;fillColor=#fff2cc;strokeColor=#d6b656;" vertex="1" parent="QiLWeh3rhh1vCK5693KF-3">
          <mxGeometry width="125" height="40" as="geometry" />
        </mxCell>
        <mxCell id="5cd2LB1jiimj6dj2osRP-33" value="v1.0.1-pre.0" style="rounded=1;whiteSpace=wrap;html=1;arcSize=8;rotation=0;fillColor=#dae8fc;strokeColor=#6c8ebf;" vertex="1" parent="QiLWeh3rhh1vCK5693KF-3">
          <mxGeometry x="77.5" y="30" width="70" height="24.62" as="geometry" />
        </mxCell>
        <mxCell id="QiLWeh3rhh1vCK5693KF-4" value="" style="group" vertex="1" connectable="0" parent="1">
          <mxGeometry x="532.5" y="170" width="147.5" height="54.620000000000005" as="geometry" />
        </mxCell>
        <mxCell id="5cd2LB1jiimj6dj2osRP-58" value="Release creation" style="rounded=0;whiteSpace=wrap;html=1;fillColor=#fff2cc;strokeColor=#d6b656;" vertex="1" parent="QiLWeh3rhh1vCK5693KF-4">
          <mxGeometry width="125" height="40" as="geometry" />
        </mxCell>
        <mxCell id="5cd2LB1jiimj6dj2osRP-59" value="v1.0.1" style="rounded=1;whiteSpace=wrap;html=1;arcSize=8;rotation=0;fillColor=#dae8fc;strokeColor=#6c8ebf;" vertex="1" parent="QiLWeh3rhh1vCK5693KF-4">
          <mxGeometry x="97.5" y="30" width="50" height="24.62" as="geometry" />
        </mxCell>
      </root>
    </mxGraphModel>
  </diagram>
  <diagram id="2L8MjhIsjydz6ORR8fdf" name="feature">
    <mxGraphModel dx="1205" dy="623" grid="1" gridSize="10" guides="1" tooltips="1" connect="1" arrows="1" fold="1" page="1" pageScale="1" pageWidth="850" pageHeight="1100" math="0" shadow="0">
      <root>
        <mxCell id="0" />
        <mxCell id="1" parent="0" />
        <mxCell id="0zvie3G6v1eaCCdzBdob-1" value="" style="shape=flexArrow;endArrow=classic;html=1;rounded=0;fillColor=#CCCCFF;" edge="1" parent="1">
          <mxGeometry width="50" height="50" relative="1" as="geometry">
            <mxPoint x="70" y="110" as="sourcePoint" />
            <mxPoint x="760" y="110" as="targetPoint" />
          </mxGeometry>
        </mxCell>
        <mxCell id="0zvie3G6v1eaCCdzBdob-2" value="Merge feature" style="rounded=1;whiteSpace=wrap;html=1;" vertex="1" parent="1">
          <mxGeometry x="120.00000000000001" y="90" width="90" height="40" as="geometry" />
        </mxCell>
        <mxCell id="0zvie3G6v1eaCCdzBdob-3" value="" style="endArrow=classic;html=1;rounded=0;exitX=0.5;exitY=1;exitDx=0;exitDy=0;entryX=0.5;entryY=0;entryDx=0;entryDy=0;" edge="1" parent="1" source="0zvie3G6v1eaCCdzBdob-2" target="0zvie3G6v1eaCCdzBdob-40">
          <mxGeometry width="50" height="50" relative="1" as="geometry">
            <mxPoint x="430" y="370" as="sourcePoint" />
            <mxPoint x="190" y="170" as="targetPoint" />
          </mxGeometry>
        </mxCell>
        <mxCell id="0zvie3G6v1eaCCdzBdob-4" value="" style="endArrow=none;html=1;rounded=0;strokeColor=#999999;dashed=1;" edge="1" parent="1">
          <mxGeometry width="50" height="50" relative="1" as="geometry">
            <mxPoint x="75" y="297.69" as="sourcePoint" />
            <mxPoint x="760" y="298" as="targetPoint" />
          </mxGeometry>
        </mxCell>
        <mxCell id="0zvie3G6v1eaCCdzBdob-5" value="Preview" style="rounded=0;whiteSpace=wrap;html=1;fillColor=#ffe6cc;strokeColor=#d79b00;" vertex="1" parent="1">
          <mxGeometry x="80" y="310" width="60" height="20" as="geometry" />
        </mxCell>
        <mxCell id="0zvie3G6v1eaCCdzBdob-6" value="" style="endArrow=none;html=1;rounded=0;strokeColor=#999999;dashed=1;" edge="1" parent="1">
          <mxGeometry width="50" height="50" relative="1" as="geometry">
            <mxPoint x="80" y="450" as="sourcePoint" />
            <mxPoint x="750" y="450" as="targetPoint" />
          </mxGeometry>
        </mxCell>
        <mxCell id="0zvie3G6v1eaCCdzBdob-7" value="Live" style="rounded=0;whiteSpace=wrap;html=1;fillColor=#d5e8d4;strokeColor=#82b366;" vertex="1" parent="1">
          <mxGeometry x="85" y="462.31" width="60" height="20" as="geometry" />
        </mxCell>
        <mxCell id="0zvie3G6v1eaCCdzBdob-8" value="Publish&lt;br&gt;pre-release" style="rounded=1;whiteSpace=wrap;html=1;" vertex="1" parent="1">
          <mxGeometry x="327.5" y="90" width="90" height="40" as="geometry" />
        </mxCell>
        <mxCell id="0zvie3G6v1eaCCdzBdob-9" value="" style="endArrow=none;dashed=1;html=1;dashPattern=12 12;strokeWidth=2;rounded=0;strokeColor=#999999;" edge="1" parent="1">
          <mxGeometry width="50" height="50" relative="1" as="geometry">
            <mxPoint x="270" y="450" as="sourcePoint" />
            <mxPoint x="270" y="80" as="targetPoint" />
          </mxGeometry>
        </mxCell>
        <mxCell id="0zvie3G6v1eaCCdzBdob-10" value="" style="endArrow=classic;html=1;rounded=0;exitX=0.5;exitY=1;exitDx=0;exitDy=0;" edge="1" parent="1" source="0zvie3G6v1eaCCdzBdob-8">
          <mxGeometry width="50" height="50" relative="1" as="geometry">
            <mxPoint x="372.02" y="176.51" as="sourcePoint" />
            <mxPoint x="373" y="170" as="targetPoint" />
          </mxGeometry>
        </mxCell>
        <mxCell id="0zvie3G6v1eaCCdzBdob-11" value="Deploy on preview" style="rounded=0;whiteSpace=wrap;html=1;fillColor=#ffe6cc;strokeColor=#d79b00;" vertex="1" parent="1">
          <mxGeometry x="310" y="170" width="125" height="40" as="geometry" />
        </mxCell>
        <mxCell id="0zvie3G6v1eaCCdzBdob-12" value="" style="endArrow=classic;html=1;rounded=0;exitX=0.5;exitY=1;exitDx=0;exitDy=0;entryX=0.5;entryY=0;entryDx=0;entryDy=0;" edge="1" parent="1" source="0zvie3G6v1eaCCdzBdob-11" target="0zvie3G6v1eaCCdzBdob-13">
          <mxGeometry width="50" height="50" relative="1" as="geometry">
            <mxPoint x="372.07" y="220" as="sourcePoint" />
            <mxPoint x="390" y="230" as="targetPoint" />
          </mxGeometry>
        </mxCell>
        <mxCell id="0zvie3G6v1eaCCdzBdob-13" value="Wait for approval" style="rounded=0;whiteSpace=wrap;html=1;fillColor=#f5f5f5;strokeColor=#666666;fontColor=#333333;" vertex="1" parent="1">
          <mxGeometry x="310" y="240.19" width="125" height="40" as="geometry" />
        </mxCell>
        <mxCell id="0zvie3G6v1eaCCdzBdob-14" value="" style="endArrow=classic;html=1;rounded=0;entryX=0;entryY=0;entryDx=0;entryDy=0;exitX=0;exitY=1;exitDx=0;exitDy=0;curved=1;strokeColor=#CCCCCC;dashed=1;" edge="1" parent="1" source="0zvie3G6v1eaCCdzBdob-11" target="0zvie3G6v1eaCCdzBdob-35">
          <mxGeometry width="50" height="50" relative="1" as="geometry">
            <mxPoint x="420" y="350" as="sourcePoint" />
            <mxPoint x="470" y="300" as="targetPoint" />
            <Array as="points">
              <mxPoint x="280" y="300" />
            </Array>
          </mxGeometry>
        </mxCell>
        <mxCell id="0zvie3G6v1eaCCdzBdob-15" value="" style="endArrow=none;dashed=1;html=1;dashPattern=12 12;strokeWidth=2;rounded=0;strokeColor=#999999;" edge="1" parent="1">
          <mxGeometry width="50" height="50" relative="1" as="geometry">
            <mxPoint x="480" y="590" as="sourcePoint" />
            <mxPoint x="480" y="70" as="targetPoint" />
          </mxGeometry>
        </mxCell>
        <mxCell id="0zvie3G6v1eaCCdzBdob-16" style="rounded=0;orthogonalLoop=1;jettySize=auto;html=1;exitX=0.5;exitY=1;exitDx=0;exitDy=0;entryX=0.5;entryY=0;entryDx=0;entryDy=0;" edge="1" parent="1" source="0zvie3G6v1eaCCdzBdob-17" target="0zvie3G6v1eaCCdzBdob-43">
          <mxGeometry relative="1" as="geometry" />
        </mxCell>
        <mxCell id="0zvie3G6v1eaCCdzBdob-17" value="Approve&lt;br&gt;pre-release" style="rounded=1;whiteSpace=wrap;html=1;" vertex="1" parent="1">
          <mxGeometry x="550" y="90" width="90" height="40" as="geometry" />
        </mxCell>
        <mxCell id="0zvie3G6v1eaCCdzBdob-18" style="rounded=0;orthogonalLoop=1;jettySize=auto;html=1;exitX=0.5;exitY=1;exitDx=0;exitDy=0;entryX=0.5;entryY=0;entryDx=0;entryDy=0;" edge="1" parent="1" source="0zvie3G6v1eaCCdzBdob-43" target="0zvie3G6v1eaCCdzBdob-21">
          <mxGeometry relative="1" as="geometry" />
        </mxCell>
        <mxCell id="0zvie3G6v1eaCCdzBdob-19" style="rounded=0;orthogonalLoop=1;jettySize=auto;html=1;exitX=0.5;exitY=1;exitDx=0;exitDy=0;entryX=0.5;entryY=0;entryDx=0;entryDy=0;" edge="1" parent="1" source="0zvie3G6v1eaCCdzBdob-43" target="0zvie3G6v1eaCCdzBdob-23">
          <mxGeometry relative="1" as="geometry" />
        </mxCell>
        <mxCell id="0zvie3G6v1eaCCdzBdob-20" style="rounded=0;orthogonalLoop=1;jettySize=auto;html=1;entryX=0;entryY=0;entryDx=0;entryDy=0;dashed=1;curved=1;strokeColor=#CCCCCC;" edge="1" parent="1" source="0zvie3G6v1eaCCdzBdob-21" target="0zvie3G6v1eaCCdzBdob-29">
          <mxGeometry relative="1" as="geometry">
            <Array as="points">
              <mxPoint x="550" y="330" />
            </Array>
          </mxGeometry>
        </mxCell>
        <mxCell id="0zvie3G6v1eaCCdzBdob-21" value="Deploy on preview" style="rounded=0;whiteSpace=wrap;html=1;fillColor=#ffe6cc;strokeColor=#d79b00;" vertex="1" parent="1">
          <mxGeometry x="500" y="240.19" width="85" height="40" as="geometry" />
        </mxCell>
        <mxCell id="0zvie3G6v1eaCCdzBdob-22" style="rounded=0;orthogonalLoop=1;jettySize=auto;html=1;exitX=1;exitY=1;exitDx=0;exitDy=0;entryX=1;entryY=0;entryDx=0;entryDy=0;dashed=1;curved=1;strokeColor=#CCCCCC;" edge="1" parent="1" source="0zvie3G6v1eaCCdzBdob-23" target="0zvie3G6v1eaCCdzBdob-32">
          <mxGeometry relative="1" as="geometry">
            <Array as="points">
              <mxPoint x="710" y="410" />
            </Array>
          </mxGeometry>
        </mxCell>
        <mxCell id="0zvie3G6v1eaCCdzBdob-23" value="Deploy on live" style="rounded=0;whiteSpace=wrap;html=1;fillColor=#d5e8d4;strokeColor=#82b366;" vertex="1" parent="1">
          <mxGeometry x="610" y="240.19" width="70" height="40" as="geometry" />
        </mxCell>
        <mxCell id="0zvie3G6v1eaCCdzBdob-24" value="" style="group;arcSize=12;" vertex="1" connectable="0" parent="1">
          <mxGeometry x="80" y="520" width="390" height="30" as="geometry" />
        </mxCell>
        <mxCell id="0zvie3G6v1eaCCdzBdob-25" value="" style="shape=crossbar;whiteSpace=wrap;html=1;rounded=1;" vertex="1" parent="0zvie3G6v1eaCCdzBdob-24">
          <mxGeometry y="5" width="390" height="20" as="geometry" />
        </mxCell>
        <mxCell id="0zvie3G6v1eaCCdzBdob-26" value="v1.0.0" style="rounded=1;whiteSpace=wrap;html=1;arcSize=8;rotation=0;fillColor=#d5e8d4;strokeColor=#82b366;" vertex="1" parent="0zvie3G6v1eaCCdzBdob-24">
          <mxGeometry x="160" width="70" height="30" as="geometry" />
        </mxCell>
        <mxCell id="0zvie3G6v1eaCCdzBdob-27" value="" style="group" vertex="1" connectable="0" parent="1">
          <mxGeometry x="490" y="360" width="250" height="30" as="geometry" />
        </mxCell>
        <mxCell id="0zvie3G6v1eaCCdzBdob-28" value="" style="shape=crossbar;whiteSpace=wrap;html=1;rounded=1;" vertex="1" parent="0zvie3G6v1eaCCdzBdob-27">
          <mxGeometry y="5" width="250" height="20" as="geometry" />
        </mxCell>
        <mxCell id="0zvie3G6v1eaCCdzBdob-29" value="v1.1.0" style="rounded=1;whiteSpace=wrap;html=1;arcSize=8;rotation=0;fillColor=#ffe6cc;strokeColor=#d79b00;" vertex="1" parent="0zvie3G6v1eaCCdzBdob-27">
          <mxGeometry x="95" width="80" height="30" as="geometry" />
        </mxCell>
        <mxCell id="0zvie3G6v1eaCCdzBdob-30" value="" style="group" vertex="1" connectable="0" parent="1">
          <mxGeometry x="490" y="520" width="250" height="30" as="geometry" />
        </mxCell>
        <mxCell id="0zvie3G6v1eaCCdzBdob-31" value="" style="shape=crossbar;whiteSpace=wrap;html=1;rounded=1;" vertex="1" parent="0zvie3G6v1eaCCdzBdob-30">
          <mxGeometry y="5" width="250" height="20" as="geometry" />
        </mxCell>
        <mxCell id="0zvie3G6v1eaCCdzBdob-32" value="v1.1.0" style="rounded=1;whiteSpace=wrap;html=1;arcSize=8;rotation=0;fillColor=#d5e8d4;strokeColor=#82b366;" vertex="1" parent="0zvie3G6v1eaCCdzBdob-30">
          <mxGeometry x="95" width="80" height="30" as="geometry" />
        </mxCell>
        <mxCell id="0zvie3G6v1eaCCdzBdob-33" value="" style="group" vertex="1" connectable="0" parent="1">
          <mxGeometry x="290" y="360" width="180" height="30" as="geometry" />
        </mxCell>
        <mxCell id="0zvie3G6v1eaCCdzBdob-34" value="" style="shape=crossbar;whiteSpace=wrap;html=1;rounded=1;" vertex="1" parent="0zvie3G6v1eaCCdzBdob-33">
          <mxGeometry y="5" width="180" height="20" as="geometry" />
        </mxCell>
        <mxCell id="0zvie3G6v1eaCCdzBdob-35" value="v1.1.0-pre.0" style="rounded=1;whiteSpace=wrap;html=1;arcSize=8;rotation=0;fillColor=#ffe6cc;strokeColor=#d79b00;" vertex="1" parent="0zvie3G6v1eaCCdzBdob-33">
          <mxGeometry x="47.5" width="80" height="30" as="geometry" />
        </mxCell>
        <mxCell id="0zvie3G6v1eaCCdzBdob-36" value="" style="group" vertex="1" connectable="0" parent="1">
          <mxGeometry x="80" y="360" width="180" height="30" as="geometry" />
        </mxCell>
        <mxCell id="0zvie3G6v1eaCCdzBdob-37" value="" style="shape=crossbar;whiteSpace=wrap;html=1;rounded=1;" vertex="1" parent="0zvie3G6v1eaCCdzBdob-36">
          <mxGeometry y="5" width="180" height="20" as="geometry" />
        </mxCell>
        <mxCell id="0zvie3G6v1eaCCdzBdob-38" value="v1.0.0" style="rounded=1;whiteSpace=wrap;html=1;arcSize=8;rotation=0;fillColor=#ffe6cc;strokeColor=#d79b00;" vertex="1" parent="0zvie3G6v1eaCCdzBdob-36">
          <mxGeometry x="55" width="70" height="30" as="geometry" />
        </mxCell>
        <mxCell id="0zvie3G6v1eaCCdzBdob-39" value="" style="group" vertex="1" connectable="0" parent="1">
          <mxGeometry x="102.5" y="170" width="147.5" height="54.620000000000005" as="geometry" />
        </mxCell>
        <mxCell id="0zvie3G6v1eaCCdzBdob-40" value="Create pre-release" style="rounded=0;whiteSpace=wrap;html=1;fillColor=#fff2cc;strokeColor=#d6b656;" vertex="1" parent="0zvie3G6v1eaCCdzBdob-39">
          <mxGeometry width="125" height="40" as="geometry" />
        </mxCell>
        <mxCell id="0zvie3G6v1eaCCdzBdob-41" value="v1.1.0-pre.0" style="rounded=1;whiteSpace=wrap;html=1;arcSize=8;rotation=0;fillColor=#dae8fc;strokeColor=#6c8ebf;" vertex="1" parent="0zvie3G6v1eaCCdzBdob-39">
          <mxGeometry x="77.5" y="30" width="70" height="24.62" as="geometry" />
        </mxCell>
        <mxCell id="0zvie3G6v1eaCCdzBdob-42" value="" style="group" vertex="1" connectable="0" parent="1">
          <mxGeometry x="532.5" y="170" width="147.5" height="54.620000000000005" as="geometry" />
        </mxCell>
        <mxCell id="0zvie3G6v1eaCCdzBdob-43" value="Release creation" style="rounded=0;whiteSpace=wrap;html=1;fillColor=#fff2cc;strokeColor=#d6b656;" vertex="1" parent="0zvie3G6v1eaCCdzBdob-42">
          <mxGeometry width="125" height="40" as="geometry" />
        </mxCell>
        <mxCell id="0zvie3G6v1eaCCdzBdob-44" value="v1.1.0" style="rounded=1;whiteSpace=wrap;html=1;arcSize=8;rotation=0;fillColor=#dae8fc;strokeColor=#6c8ebf;" vertex="1" parent="0zvie3G6v1eaCCdzBdob-42">
          <mxGeometry x="97.5" y="30" width="50" height="24.62" as="geometry" />
        </mxCell>
      </root>
    </mxGraphModel>
  </diagram>
  <diagram id="Sou7Y3nckNsxvQmmGEtb" name="fix then feature">
    <mxGraphModel dx="1540" dy="796" grid="1" gridSize="10" guides="1" tooltips="1" connect="1" arrows="1" fold="1" page="1" pageScale="1" pageWidth="850" pageHeight="1100" math="0" shadow="0">
      <root>
        <mxCell id="0" />
        <mxCell id="1" parent="0" />
        <mxCell id="I6OJyfYU7SBkb0R3gnMq-1" value="" style="shape=flexArrow;endArrow=classic;html=1;rounded=0;fillColor=#CCCCFF;" edge="1" parent="1">
          <mxGeometry width="50" height="50" relative="1" as="geometry">
            <mxPoint x="10" y="110" as="sourcePoint" />
            <mxPoint x="830" y="110" as="targetPoint" />
          </mxGeometry>
        </mxCell>
        <mxCell id="I6OJyfYU7SBkb0R3gnMq-2" value="Merge fix" style="rounded=1;whiteSpace=wrap;html=1;" vertex="1" parent="1">
          <mxGeometry x="60.000000000000014" y="90" width="90" height="40" as="geometry" />
        </mxCell>
        <mxCell id="I6OJyfYU7SBkb0R3gnMq-3" value="" style="endArrow=classic;html=1;rounded=0;exitX=0.5;exitY=1;exitDx=0;exitDy=0;entryX=0.5;entryY=0;entryDx=0;entryDy=0;" edge="1" parent="1" source="I6OJyfYU7SBkb0R3gnMq-2" target="I6OJyfYU7SBkb0R3gnMq-40">
          <mxGeometry width="50" height="50" relative="1" as="geometry">
            <mxPoint x="370" y="370" as="sourcePoint" />
            <mxPoint x="130" y="170" as="targetPoint" />
          </mxGeometry>
        </mxCell>
        <mxCell id="I6OJyfYU7SBkb0R3gnMq-4" value="" style="endArrow=none;html=1;rounded=0;strokeColor=#999999;dashed=1;" edge="1" parent="1">
          <mxGeometry width="50" height="50" relative="1" as="geometry">
            <mxPoint x="15" y="297.69" as="sourcePoint" />
            <mxPoint x="830" y="298" as="targetPoint" />
          </mxGeometry>
        </mxCell>
        <mxCell id="I6OJyfYU7SBkb0R3gnMq-5" value="Preview" style="rounded=0;whiteSpace=wrap;html=1;fillColor=#ffe6cc;strokeColor=#d79b00;" vertex="1" parent="1">
          <mxGeometry x="20" y="310" width="60" height="20" as="geometry" />
        </mxCell>
        <mxCell id="I6OJyfYU7SBkb0R3gnMq-6" value="" style="endArrow=none;html=1;rounded=0;strokeColor=#999999;dashed=1;" edge="1" parent="1">
          <mxGeometry width="50" height="50" relative="1" as="geometry">
            <mxPoint x="20" y="450" as="sourcePoint" />
            <mxPoint x="830" y="450" as="targetPoint" />
          </mxGeometry>
        </mxCell>
        <mxCell id="I6OJyfYU7SBkb0R3gnMq-7" value="Live" style="rounded=0;whiteSpace=wrap;html=1;fillColor=#d5e8d4;strokeColor=#82b366;" vertex="1" parent="1">
          <mxGeometry x="25" y="462.31" width="60" height="20" as="geometry" />
        </mxCell>
        <mxCell id="I6OJyfYU7SBkb0R3gnMq-8" value="Publish&lt;br&gt;pre-release" style="rounded=1;whiteSpace=wrap;html=1;" vertex="1" parent="1">
          <mxGeometry x="450" y="90" width="90" height="40" as="geometry" />
        </mxCell>
        <mxCell id="I6OJyfYU7SBkb0R3gnMq-9" value="" style="endArrow=none;dashed=1;html=1;dashPattern=12 12;strokeWidth=2;rounded=0;strokeColor=#999999;" edge="1" parent="1">
          <mxGeometry width="50" height="50" relative="1" as="geometry">
            <mxPoint x="390" y="435.19" as="sourcePoint" />
            <mxPoint x="390" y="65.19" as="targetPoint" />
          </mxGeometry>
        </mxCell>
        <mxCell id="I6OJyfYU7SBkb0R3gnMq-10" value="" style="endArrow=classic;html=1;rounded=0;exitX=0.5;exitY=1;exitDx=0;exitDy=0;entryX=0.5;entryY=0;entryDx=0;entryDy=0;" edge="1" parent="1" source="I6OJyfYU7SBkb0R3gnMq-8" target="I6OJyfYU7SBkb0R3gnMq-11">
          <mxGeometry width="50" height="50" relative="1" as="geometry">
            <mxPoint x="507.02" y="166.51" as="sourcePoint" />
            <mxPoint x="508" y="160" as="targetPoint" />
          </mxGeometry>
        </mxCell>
        <mxCell id="I6OJyfYU7SBkb0R3gnMq-11" value="Deploy on preview" style="rounded=0;whiteSpace=wrap;html=1;fillColor=#ffe6cc;strokeColor=#d79b00;" vertex="1" parent="1">
          <mxGeometry x="432.5" y="170" width="125" height="40" as="geometry" />
        </mxCell>
        <mxCell id="I6OJyfYU7SBkb0R3gnMq-12" value="" style="endArrow=classic;html=1;rounded=0;exitX=0.5;exitY=1;exitDx=0;exitDy=0;entryX=0.5;entryY=0;entryDx=0;entryDy=0;" edge="1" parent="1" source="I6OJyfYU7SBkb0R3gnMq-11" target="I6OJyfYU7SBkb0R3gnMq-13">
          <mxGeometry width="50" height="50" relative="1" as="geometry">
            <mxPoint x="507.07" y="210" as="sourcePoint" />
            <mxPoint x="525" y="220" as="targetPoint" />
          </mxGeometry>
        </mxCell>
        <mxCell id="I6OJyfYU7SBkb0R3gnMq-13" value="Wait for approval" style="rounded=0;whiteSpace=wrap;html=1;fillColor=#f5f5f5;strokeColor=#666666;fontColor=#333333;" vertex="1" parent="1">
          <mxGeometry x="432.5" y="240" width="125" height="40" as="geometry" />
        </mxCell>
        <mxCell id="I6OJyfYU7SBkb0R3gnMq-14" value="" style="endArrow=classic;html=1;rounded=0;entryX=0;entryY=0;entryDx=0;entryDy=0;exitX=0;exitY=1;exitDx=0;exitDy=0;curved=1;strokeColor=#CCCCCC;dashed=1;" edge="1" parent="1" source="I6OJyfYU7SBkb0R3gnMq-11" target="I6OJyfYU7SBkb0R3gnMq-35">
          <mxGeometry width="50" height="50" relative="1" as="geometry">
            <mxPoint x="510" y="340" as="sourcePoint" />
            <mxPoint x="560" y="290" as="targetPoint" />
            <Array as="points">
              <mxPoint x="390" y="290" />
            </Array>
          </mxGeometry>
        </mxCell>
        <mxCell id="I6OJyfYU7SBkb0R3gnMq-15" value="" style="endArrow=none;dashed=1;html=1;dashPattern=12 12;strokeWidth=2;rounded=0;strokeColor=#999999;" edge="1" parent="1">
          <mxGeometry width="50" height="50" relative="1" as="geometry">
            <mxPoint x="599.71" y="580" as="sourcePoint" />
            <mxPoint x="599.71" y="60" as="targetPoint" />
          </mxGeometry>
        </mxCell>
        <mxCell id="I6OJyfYU7SBkb0R3gnMq-16" style="rounded=0;orthogonalLoop=1;jettySize=auto;html=1;exitX=0.5;exitY=1;exitDx=0;exitDy=0;entryX=0.5;entryY=0;entryDx=0;entryDy=0;" edge="1" parent="1" source="I6OJyfYU7SBkb0R3gnMq-17" target="I6OJyfYU7SBkb0R3gnMq-43">
          <mxGeometry relative="1" as="geometry" />
        </mxCell>
        <mxCell id="I6OJyfYU7SBkb0R3gnMq-17" value="Approve&lt;br&gt;pre-release" style="rounded=1;whiteSpace=wrap;html=1;" vertex="1" parent="1">
          <mxGeometry x="685" y="90" width="90" height="40" as="geometry" />
        </mxCell>
        <mxCell id="I6OJyfYU7SBkb0R3gnMq-18" style="rounded=0;orthogonalLoop=1;jettySize=auto;html=1;exitX=0.5;exitY=1;exitDx=0;exitDy=0;entryX=0.5;entryY=0;entryDx=0;entryDy=0;" edge="1" parent="1" source="I6OJyfYU7SBkb0R3gnMq-43" target="I6OJyfYU7SBkb0R3gnMq-21">
          <mxGeometry relative="1" as="geometry" />
        </mxCell>
        <mxCell id="I6OJyfYU7SBkb0R3gnMq-19" style="rounded=0;orthogonalLoop=1;jettySize=auto;html=1;exitX=0.5;exitY=1;exitDx=0;exitDy=0;entryX=0.5;entryY=0;entryDx=0;entryDy=0;" edge="1" parent="1" source="I6OJyfYU7SBkb0R3gnMq-43" target="I6OJyfYU7SBkb0R3gnMq-23">
          <mxGeometry relative="1" as="geometry" />
        </mxCell>
        <mxCell id="I6OJyfYU7SBkb0R3gnMq-20" style="rounded=0;orthogonalLoop=1;jettySize=auto;html=1;entryX=0;entryY=0;entryDx=0;entryDy=0;dashed=1;curved=1;strokeColor=#CCCCCC;" edge="1" parent="1" source="I6OJyfYU7SBkb0R3gnMq-21">
          <mxGeometry relative="1" as="geometry">
            <Array as="points">
              <mxPoint x="660" y="320" />
            </Array>
            <mxPoint x="684.9999999999998" y="365" as="targetPoint" />
          </mxGeometry>
        </mxCell>
        <mxCell id="I6OJyfYU7SBkb0R3gnMq-21" value="Deploy on preview" style="rounded=0;whiteSpace=wrap;html=1;fillColor=#ffe6cc;strokeColor=#d79b00;" vertex="1" parent="1">
          <mxGeometry x="635" y="230.19" width="85" height="40" as="geometry" />
        </mxCell>
        <mxCell id="I6OJyfYU7SBkb0R3gnMq-22" style="rounded=0;orthogonalLoop=1;jettySize=auto;html=1;exitX=1;exitY=1;exitDx=0;exitDy=0;entryX=1;entryY=0;entryDx=0;entryDy=0;dashed=1;curved=1;strokeColor=#CCCCCC;" edge="1" parent="1" source="I6OJyfYU7SBkb0R3gnMq-23" target="I6OJyfYU7SBkb0R3gnMq-32">
          <mxGeometry relative="1" as="geometry">
            <Array as="points">
              <mxPoint x="840" y="420" />
            </Array>
          </mxGeometry>
        </mxCell>
        <mxCell id="I6OJyfYU7SBkb0R3gnMq-23" value="Deploy on live" style="rounded=0;whiteSpace=wrap;html=1;fillColor=#d5e8d4;strokeColor=#82b366;" vertex="1" parent="1">
          <mxGeometry x="745" y="230.19" width="70" height="40" as="geometry" />
        </mxCell>
        <mxCell id="I6OJyfYU7SBkb0R3gnMq-39" value="" style="group" vertex="1" connectable="0" parent="1">
          <mxGeometry x="42.5" y="170" width="147.5" height="54.620000000000005" as="geometry" />
        </mxCell>
        <mxCell id="I6OJyfYU7SBkb0R3gnMq-40" value="Create pre-release" style="rounded=0;whiteSpace=wrap;html=1;fillColor=#fff2cc;strokeColor=#d6b656;" vertex="1" parent="I6OJyfYU7SBkb0R3gnMq-39">
          <mxGeometry width="125" height="40" as="geometry" />
        </mxCell>
        <mxCell id="I6OJyfYU7SBkb0R3gnMq-41" value="v1.2.1-pre.0" style="rounded=1;whiteSpace=wrap;html=1;arcSize=8;rotation=0;fillColor=#dae8fc;strokeColor=#6c8ebf;" vertex="1" parent="I6OJyfYU7SBkb0R3gnMq-39">
          <mxGeometry x="77.5" y="30" width="70" height="24.62" as="geometry" />
        </mxCell>
        <mxCell id="I6OJyfYU7SBkb0R3gnMq-42" value="" style="group" vertex="1" connectable="0" parent="1">
          <mxGeometry x="667.5" y="160" width="147.5" height="54.620000000000005" as="geometry" />
        </mxCell>
        <mxCell id="I6OJyfYU7SBkb0R3gnMq-43" value="Release creation" style="rounded=0;whiteSpace=wrap;html=1;fillColor=#fff2cc;strokeColor=#d6b656;" vertex="1" parent="I6OJyfYU7SBkb0R3gnMq-42">
          <mxGeometry width="125" height="40" as="geometry" />
        </mxCell>
        <mxCell id="I6OJyfYU7SBkb0R3gnMq-44" value="v1.3.0" style="rounded=1;whiteSpace=wrap;html=1;arcSize=8;rotation=0;fillColor=#dae8fc;strokeColor=#6c8ebf;" vertex="1" parent="I6OJyfYU7SBkb0R3gnMq-42">
          <mxGeometry x="97.5" y="30" width="50" height="24.62" as="geometry" />
        </mxCell>
        <mxCell id="I6OJyfYU7SBkb0R3gnMq-31" value="" style="shape=crossbar;whiteSpace=wrap;html=1;rounded=1;" vertex="1" parent="1">
          <mxGeometry x="610" y="520" width="220" height="20" as="geometry" />
        </mxCell>
        <mxCell id="I6OJyfYU7SBkb0R3gnMq-32" value="v1.3.0" style="rounded=1;whiteSpace=wrap;html=1;arcSize=8;rotation=0;fillColor=#d5e8d4;strokeColor=#82b366;" vertex="1" parent="1">
          <mxGeometry x="680" y="515" width="80" height="30" as="geometry" />
        </mxCell>
        <mxCell id="I6OJyfYU7SBkb0R3gnMq-45" value="Merge feature" style="rounded=1;whiteSpace=wrap;html=1;" vertex="1" parent="1">
          <mxGeometry x="237.5" y="90" width="90" height="40" as="geometry" />
        </mxCell>
        <mxCell id="I6OJyfYU7SBkb0R3gnMq-46" value="" style="endArrow=classic;html=1;rounded=0;exitX=0.5;exitY=1;exitDx=0;exitDy=0;entryX=0.5;entryY=0;entryDx=0;entryDy=0;" edge="1" parent="1" source="I6OJyfYU7SBkb0R3gnMq-45" target="I6OJyfYU7SBkb0R3gnMq-48">
          <mxGeometry width="50" height="50" relative="1" as="geometry">
            <mxPoint x="547.5" y="370" as="sourcePoint" />
            <mxPoint x="307.5" y="170" as="targetPoint" />
          </mxGeometry>
        </mxCell>
        <mxCell id="I6OJyfYU7SBkb0R3gnMq-47" value="" style="group" vertex="1" connectable="0" parent="1">
          <mxGeometry x="220" y="170" width="147.5" height="54.620000000000005" as="geometry" />
        </mxCell>
        <mxCell id="I6OJyfYU7SBkb0R3gnMq-48" value="Update pre-release" style="rounded=0;whiteSpace=wrap;html=1;fillColor=#fff2cc;strokeColor=#d6b656;" vertex="1" parent="I6OJyfYU7SBkb0R3gnMq-47">
          <mxGeometry width="125" height="40" as="geometry" />
        </mxCell>
        <mxCell id="I6OJyfYU7SBkb0R3gnMq-49" value="v1.3.0-pre.0" style="rounded=1;whiteSpace=wrap;html=1;arcSize=8;rotation=0;fillColor=#dae8fc;strokeColor=#6c8ebf;" vertex="1" parent="I6OJyfYU7SBkb0R3gnMq-47">
          <mxGeometry x="77.5" y="30" width="70" height="24.62" as="geometry" />
        </mxCell>
        <mxCell id="I6OJyfYU7SBkb0R3gnMq-34" value="" style="shape=crossbar;whiteSpace=wrap;html=1;rounded=1;" vertex="1" parent="1">
          <mxGeometry x="405" y="365" width="180" height="20" as="geometry" />
        </mxCell>
        <mxCell id="I6OJyfYU7SBkb0R3gnMq-28" value="" style="shape=crossbar;whiteSpace=wrap;html=1;rounded=1;" vertex="1" parent="1">
          <mxGeometry x="610" y="365" width="220" height="20" as="geometry" />
        </mxCell>
        <mxCell id="I6OJyfYU7SBkb0R3gnMq-35" value="v1.3.0-pre.0" style="rounded=1;whiteSpace=wrap;html=1;arcSize=8;rotation=0;fillColor=#ffe6cc;strokeColor=#d79b00;" vertex="1" parent="1">
          <mxGeometry x="455" y="360" width="80" height="30" as="geometry" />
        </mxCell>
        <mxCell id="I6OJyfYU7SBkb0R3gnMq-37" value="" style="shape=crossbar;whiteSpace=wrap;html=1;rounded=1;" vertex="1" parent="1">
          <mxGeometry x="20" y="365" width="360" height="20" as="geometry" />
        </mxCell>
        <mxCell id="I6OJyfYU7SBkb0R3gnMq-38" value="v1.2.0" style="rounded=1;whiteSpace=wrap;html=1;arcSize=8;rotation=0;fillColor=#ffe6cc;strokeColor=#d79b00;" vertex="1" parent="1">
          <mxGeometry x="181.37" y="360" width="56.13" height="30" as="geometry" />
        </mxCell>
        <mxCell id="I6OJyfYU7SBkb0R3gnMq-53" value="v1.3.0" style="rounded=1;whiteSpace=wrap;html=1;arcSize=8;rotation=0;fillColor=#ffe6cc;strokeColor=#d79b00;" vertex="1" parent="1">
          <mxGeometry x="688.87" y="360" width="56.13" height="30" as="geometry" />
        </mxCell>
        <mxCell id="I6OJyfYU7SBkb0R3gnMq-55" value="" style="group" vertex="1" connectable="0" parent="1">
          <mxGeometry x="20" y="515" width="570" height="30" as="geometry" />
        </mxCell>
        <mxCell id="I6OJyfYU7SBkb0R3gnMq-25" value="" style="shape=crossbar;whiteSpace=wrap;html=1;rounded=1;" vertex="1" parent="I6OJyfYU7SBkb0R3gnMq-55">
          <mxGeometry y="5" width="570" height="20" as="geometry" />
        </mxCell>
        <mxCell id="I6OJyfYU7SBkb0R3gnMq-26" value="v1.2.0" style="rounded=1;whiteSpace=wrap;html=1;arcSize=8;rotation=0;fillColor=#d5e8d4;strokeColor=#82b366;" vertex="1" parent="I6OJyfYU7SBkb0R3gnMq-55">
          <mxGeometry x="250" width="70" height="30" as="geometry" />
        </mxCell>
      </root>
    </mxGraphModel>
  </diagram>
  <diagram id="D3KE_aHJr9imu3r8RXlv" name="qa failed">
    <mxGraphModel dx="1168" dy="853" grid="1" gridSize="10" guides="1" tooltips="1" connect="1" arrows="1" fold="1" page="1" pageScale="1" pageWidth="850" pageHeight="1100" math="0" shadow="0">
      <root>
        <mxCell id="0" />
        <mxCell id="1" parent="0" />
        <mxCell id="MJ6OcWbf_CeoyiYI_7_P-1" value="" style="shape=flexArrow;endArrow=classic;html=1;rounded=0;fillColor=#CCCCFF;movable=0;resizable=0;rotatable=0;deletable=0;editable=0;locked=1;connectable=0;" edge="1" parent="1">
          <mxGeometry width="50" height="50" relative="1" as="geometry">
            <mxPoint x="10" y="110" as="sourcePoint" />
            <mxPoint x="1110" y="110" as="targetPoint" />
          </mxGeometry>
        </mxCell>
        <mxCell id="MJ6OcWbf_CeoyiYI_7_P-2" value="Merge fix" style="rounded=1;whiteSpace=wrap;html=1;" vertex="1" parent="1">
          <mxGeometry x="30.000000000000014" y="90" width="90" height="40" as="geometry" />
        </mxCell>
        <mxCell id="MJ6OcWbf_CeoyiYI_7_P-3" value="" style="endArrow=classic;html=1;rounded=0;exitX=0.5;exitY=1;exitDx=0;exitDy=0;entryX=0.5;entryY=0;entryDx=0;entryDy=0;" edge="1" parent="1" source="MJ6OcWbf_CeoyiYI_7_P-2" target="MJ6OcWbf_CeoyiYI_7_P-40">
          <mxGeometry width="50" height="50" relative="1" as="geometry">
            <mxPoint x="430" y="370" as="sourcePoint" />
            <mxPoint x="190" y="170" as="targetPoint" />
          </mxGeometry>
        </mxCell>
        <mxCell id="MJ6OcWbf_CeoyiYI_7_P-4" value="" style="endArrow=none;html=1;rounded=0;strokeColor=#999999;dashed=1;" edge="1" parent="1">
          <mxGeometry width="50" height="50" relative="1" as="geometry">
            <mxPoint x="10" y="298" as="sourcePoint" />
            <mxPoint x="1150" y="298" as="targetPoint" />
          </mxGeometry>
        </mxCell>
        <mxCell id="MJ6OcWbf_CeoyiYI_7_P-5" value="Preview" style="rounded=0;whiteSpace=wrap;html=1;fillColor=#ffe6cc;strokeColor=#d79b00;" vertex="1" parent="1">
          <mxGeometry x="13" y="310" width="60" height="20" as="geometry" />
        </mxCell>
        <mxCell id="MJ6OcWbf_CeoyiYI_7_P-6" value="" style="endArrow=none;html=1;rounded=0;strokeColor=#999999;dashed=1;" edge="1" parent="1">
          <mxGeometry width="50" height="50" relative="1" as="geometry">
            <mxPoint x="10" y="450" as="sourcePoint" />
            <mxPoint x="1150" y="450" as="targetPoint" />
          </mxGeometry>
        </mxCell>
        <mxCell id="MJ6OcWbf_CeoyiYI_7_P-7" value="Live" style="rounded=0;whiteSpace=wrap;html=1;fillColor=#d5e8d4;strokeColor=#82b366;" vertex="1" parent="1">
          <mxGeometry x="10" y="462.31" width="60" height="20" as="geometry" />
        </mxCell>
        <mxCell id="MJ6OcWbf_CeoyiYI_7_P-8" value="Publish&lt;br&gt;pre-release" style="rounded=1;whiteSpace=wrap;html=1;" vertex="1" parent="1">
          <mxGeometry x="200" y="90" width="90" height="40" as="geometry" />
        </mxCell>
        <mxCell id="MJ6OcWbf_CeoyiYI_7_P-9" value="" style="endArrow=none;dashed=1;html=1;dashPattern=12 12;strokeWidth=2;rounded=0;strokeColor=#999999;" edge="1" parent="1">
          <mxGeometry width="50" height="50" relative="1" as="geometry">
            <mxPoint x="170" y="450" as="sourcePoint" />
            <mxPoint x="169.5" y="70" as="targetPoint" />
          </mxGeometry>
        </mxCell>
        <mxCell id="MJ6OcWbf_CeoyiYI_7_P-10" value="" style="endArrow=classic;html=1;rounded=0;exitX=0.5;exitY=1;exitDx=0;exitDy=0;entryX=0.5;entryY=0;entryDx=0;entryDy=0;" edge="1" parent="1" source="MJ6OcWbf_CeoyiYI_7_P-8" target="MJ6OcWbf_CeoyiYI_7_P-11">
          <mxGeometry width="50" height="50" relative="1" as="geometry">
            <mxPoint x="372.02" y="176.51" as="sourcePoint" />
            <mxPoint x="373" y="170" as="targetPoint" />
          </mxGeometry>
        </mxCell>
        <mxCell id="MJ6OcWbf_CeoyiYI_7_P-11" value="Deploy on preview" style="rounded=0;whiteSpace=wrap;html=1;fillColor=#ffe6cc;strokeColor=#d79b00;" vertex="1" parent="1">
          <mxGeometry x="182.5" y="162.69" width="125" height="40" as="geometry" />
        </mxCell>
        <mxCell id="MJ6OcWbf_CeoyiYI_7_P-12" value="" style="endArrow=classic;html=1;rounded=0;exitX=0.5;exitY=1;exitDx=0;exitDy=0;entryX=0.5;entryY=0;entryDx=0;entryDy=0;" edge="1" parent="1" source="MJ6OcWbf_CeoyiYI_7_P-11" target="MJ6OcWbf_CeoyiYI_7_P-13">
          <mxGeometry width="50" height="50" relative="1" as="geometry">
            <mxPoint x="372.07" y="220" as="sourcePoint" />
            <mxPoint x="390" y="230" as="targetPoint" />
          </mxGeometry>
        </mxCell>
        <mxCell id="MJ6OcWbf_CeoyiYI_7_P-13" value="Wait for approval" style="rounded=0;whiteSpace=wrap;html=1;fillColor=#f5f5f5;strokeColor=#666666;fontColor=#333333;" vertex="1" parent="1">
          <mxGeometry x="182.5" y="240.19" width="125" height="40" as="geometry" />
        </mxCell>
        <mxCell id="MJ6OcWbf_CeoyiYI_7_P-14" value="" style="endArrow=classic;html=1;rounded=0;entryX=0.5;entryY=0;entryDx=0;entryDy=0;exitX=1;exitY=1;exitDx=0;exitDy=0;curved=1;strokeColor=#CCCCCC;dashed=1;" edge="1" parent="1" source="MJ6OcWbf_CeoyiYI_7_P-11" target="MJ6OcWbf_CeoyiYI_7_P-35">
          <mxGeometry width="50" height="50" relative="1" as="geometry">
            <mxPoint x="420" y="350" as="sourcePoint" />
            <mxPoint x="470" y="300" as="targetPoint" />
            <Array as="points">
              <mxPoint x="400" y="270" />
            </Array>
          </mxGeometry>
        </mxCell>
        <mxCell id="MJ6OcWbf_CeoyiYI_7_P-15" value="" style="endArrow=none;dashed=1;html=1;dashPattern=12 12;strokeWidth=2;rounded=0;strokeColor=#999999;" edge="1" parent="1">
          <mxGeometry width="50" height="50" relative="1" as="geometry">
            <mxPoint x="690" y="450" as="sourcePoint" />
            <mxPoint x="690" y="92.31" as="targetPoint" />
          </mxGeometry>
        </mxCell>
        <mxCell id="MJ6OcWbf_CeoyiYI_7_P-17" value="QA Failed" style="rounded=1;whiteSpace=wrap;html=1;" vertex="1" parent="1">
          <mxGeometry x="374.25" y="90" width="90" height="40" as="geometry" />
        </mxCell>
        <mxCell id="MJ6OcWbf_CeoyiYI_7_P-18" style="rounded=0;orthogonalLoop=1;jettySize=auto;html=1;exitX=0.5;exitY=1;exitDx=0;exitDy=0;entryX=0.5;entryY=0;entryDx=0;entryDy=0;" edge="1" parent="1" source="MJ6OcWbf_CeoyiYI_7_P-43" target="MJ6OcWbf_CeoyiYI_7_P-21">
          <mxGeometry relative="1" as="geometry" />
        </mxCell>
        <mxCell id="MJ6OcWbf_CeoyiYI_7_P-19" style="rounded=0;orthogonalLoop=1;jettySize=auto;html=1;exitX=0.5;exitY=1;exitDx=0;exitDy=0;entryX=0.5;entryY=0;entryDx=0;entryDy=0;" edge="1" parent="1" source="MJ6OcWbf_CeoyiYI_7_P-43" target="MJ6OcWbf_CeoyiYI_7_P-23">
          <mxGeometry relative="1" as="geometry" />
        </mxCell>
        <mxCell id="MJ6OcWbf_CeoyiYI_7_P-20" style="rounded=0;orthogonalLoop=1;jettySize=auto;html=1;entryX=0;entryY=0;entryDx=0;entryDy=0;dashed=1;curved=1;strokeColor=#CCCCCC;exitX=0;exitY=1;exitDx=0;exitDy=0;" edge="1" parent="1" source="MJ6OcWbf_CeoyiYI_7_P-21" target="MJ6OcWbf_CeoyiYI_7_P-29">
          <mxGeometry relative="1" as="geometry">
            <Array as="points">
              <mxPoint x="890" y="350" />
            </Array>
          </mxGeometry>
        </mxCell>
        <mxCell id="MJ6OcWbf_CeoyiYI_7_P-21" value="Deploy on preview" style="rounded=0;whiteSpace=wrap;html=1;fillColor=#ffe6cc;strokeColor=#d79b00;" vertex="1" parent="1">
          <mxGeometry x="900" y="240.19" width="85" height="40" as="geometry" />
        </mxCell>
        <mxCell id="MJ6OcWbf_CeoyiYI_7_P-22" style="rounded=0;orthogonalLoop=1;jettySize=auto;html=1;exitX=1;exitY=1;exitDx=0;exitDy=0;entryX=1;entryY=0;entryDx=0;entryDy=0;dashed=1;curved=1;strokeColor=#CCCCCC;" edge="1" parent="1" source="MJ6OcWbf_CeoyiYI_7_P-23" target="MJ6OcWbf_CeoyiYI_7_P-32">
          <mxGeometry relative="1" as="geometry">
            <Array as="points">
              <mxPoint x="1110" y="380" />
            </Array>
          </mxGeometry>
        </mxCell>
        <mxCell id="MJ6OcWbf_CeoyiYI_7_P-23" value="Deploy on live" style="rounded=0;whiteSpace=wrap;html=1;fillColor=#d5e8d4;strokeColor=#82b366;" vertex="1" parent="1">
          <mxGeometry x="995" y="240.19" width="70" height="40" as="geometry" />
        </mxCell>
        <mxCell id="MJ6OcWbf_CeoyiYI_7_P-33" value="" style="group" vertex="1" connectable="0" parent="1">
          <mxGeometry x="178.5" y="360" width="501.5" height="30" as="geometry" />
        </mxCell>
        <mxCell id="MJ6OcWbf_CeoyiYI_7_P-34" value="" style="shape=crossbar;whiteSpace=wrap;html=1;rounded=1;" vertex="1" parent="MJ6OcWbf_CeoyiYI_7_P-33">
          <mxGeometry y="5" width="501.5" height="20" as="geometry" />
        </mxCell>
        <mxCell id="MJ6OcWbf_CeoyiYI_7_P-35" value="v1.0.1-pre.0" style="rounded=1;whiteSpace=wrap;html=1;arcSize=8;rotation=0;fillColor=#ffe6cc;strokeColor=#d79b00;" vertex="1" parent="MJ6OcWbf_CeoyiYI_7_P-33">
          <mxGeometry x="209.81142857142856" width="81.87755102040816" height="30" as="geometry" />
        </mxCell>
        <mxCell id="MJ6OcWbf_CeoyiYI_7_P-36" value="" style="group" vertex="1" connectable="0" parent="1">
          <mxGeometry x="13" y="360" width="180" height="30" as="geometry" />
        </mxCell>
        <mxCell id="MJ6OcWbf_CeoyiYI_7_P-37" value="" style="shape=crossbar;whiteSpace=wrap;html=1;rounded=1;" vertex="1" parent="MJ6OcWbf_CeoyiYI_7_P-36">
          <mxGeometry y="5" width="150" height="20" as="geometry" />
        </mxCell>
        <mxCell id="MJ6OcWbf_CeoyiYI_7_P-38" value="v1.0.0" style="rounded=1;whiteSpace=wrap;html=1;arcSize=8;rotation=0;fillColor=#ffe6cc;strokeColor=#d79b00;" vertex="1" parent="MJ6OcWbf_CeoyiYI_7_P-36">
          <mxGeometry x="40" width="70" height="30" as="geometry" />
        </mxCell>
        <mxCell id="MJ6OcWbf_CeoyiYI_7_P-39" value="" style="group" vertex="1" connectable="0" parent="1">
          <mxGeometry x="13" y="162.69" width="147.5" height="54.620000000000005" as="geometry" />
        </mxCell>
        <mxCell id="MJ6OcWbf_CeoyiYI_7_P-40" value="Create pre-release" style="rounded=0;whiteSpace=wrap;html=1;fillColor=#fff2cc;strokeColor=#d6b656;" vertex="1" parent="MJ6OcWbf_CeoyiYI_7_P-39">
          <mxGeometry width="125" height="40" as="geometry" />
        </mxCell>
        <mxCell id="MJ6OcWbf_CeoyiYI_7_P-41" value="v1.0.1-pre.0" style="rounded=1;whiteSpace=wrap;html=1;arcSize=8;rotation=0;fillColor=#dae8fc;strokeColor=#6c8ebf;" vertex="1" parent="MJ6OcWbf_CeoyiYI_7_P-39">
          <mxGeometry x="77.5" y="30" width="70" height="24.62" as="geometry" />
        </mxCell>
        <mxCell id="MJ6OcWbf_CeoyiYI_7_P-42" value="" style="group" vertex="1" connectable="0" parent="1">
          <mxGeometry x="915" y="162.69" width="147.5" height="54.620000000000005" as="geometry" />
        </mxCell>
        <mxCell id="MJ6OcWbf_CeoyiYI_7_P-43" value="Release creation" style="rounded=0;whiteSpace=wrap;html=1;fillColor=#fff2cc;strokeColor=#d6b656;" vertex="1" parent="MJ6OcWbf_CeoyiYI_7_P-42">
          <mxGeometry width="125" height="40" as="geometry" />
        </mxCell>
        <mxCell id="MJ6OcWbf_CeoyiYI_7_P-44" value="v1.0.1" style="rounded=1;whiteSpace=wrap;html=1;arcSize=8;rotation=0;fillColor=#dae8fc;strokeColor=#6c8ebf;" vertex="1" parent="MJ6OcWbf_CeoyiYI_7_P-42">
          <mxGeometry x="97.5" y="30" width="50" height="24.62" as="geometry" />
        </mxCell>
        <mxCell id="MJ6OcWbf_CeoyiYI_7_P-47" value="CircleCI job canceled" style="rounded=0;whiteSpace=wrap;html=1;fillColor=#fff2cc;strokeColor=#d6b656;" vertex="1" parent="1">
          <mxGeometry x="356.75" y="162.69" width="125" height="40" as="geometry" />
        </mxCell>
        <mxCell id="MJ6OcWbf_CeoyiYI_7_P-48" value="" style="endArrow=classic;html=1;rounded=0;exitX=0.5;exitY=1;exitDx=0;exitDy=0;entryX=0.5;entryY=0;entryDx=0;entryDy=0;" edge="1" parent="1" source="MJ6OcWbf_CeoyiYI_7_P-17" target="MJ6OcWbf_CeoyiYI_7_P-47">
          <mxGeometry width="50" height="50" relative="1" as="geometry">
            <mxPoint x="425" y="129.69" as="sourcePoint" />
            <mxPoint x="425" y="162.69" as="targetPoint" />
          </mxGeometry>
        </mxCell>
        <mxCell id="MJ6OcWbf_CeoyiYI_7_P-49" value="Merge fix" style="rounded=1;whiteSpace=wrap;html=1;" vertex="1" parent="1">
          <mxGeometry x="537" y="90" width="90" height="40" as="geometry" />
        </mxCell>
        <mxCell id="MJ6OcWbf_CeoyiYI_7_P-50" value="" style="endArrow=classic;html=1;rounded=0;exitX=0.5;exitY=1;exitDx=0;exitDy=0;entryX=0.5;entryY=0;entryDx=0;entryDy=0;" edge="1" parent="1" source="MJ6OcWbf_CeoyiYI_7_P-49" target="MJ6OcWbf_CeoyiYI_7_P-52">
          <mxGeometry width="50" height="50" relative="1" as="geometry">
            <mxPoint x="937" y="370" as="sourcePoint" />
            <mxPoint x="697" y="170" as="targetPoint" />
          </mxGeometry>
        </mxCell>
        <mxCell id="MJ6OcWbf_CeoyiYI_7_P-51" value="" style="group" vertex="1" connectable="0" parent="1">
          <mxGeometry x="520" y="162.69" width="147.5" height="54.620000000000005" as="geometry" />
        </mxCell>
        <mxCell id="MJ6OcWbf_CeoyiYI_7_P-52" value="Create pre-release" style="rounded=0;whiteSpace=wrap;html=1;fillColor=#fff2cc;strokeColor=#d6b656;" vertex="1" parent="MJ6OcWbf_CeoyiYI_7_P-51">
          <mxGeometry width="125" height="40" as="geometry" />
        </mxCell>
        <mxCell id="MJ6OcWbf_CeoyiYI_7_P-53" value="v1.0.1-pre.1" style="rounded=1;whiteSpace=wrap;html=1;arcSize=8;rotation=0;fillColor=#dae8fc;strokeColor=#6c8ebf;" vertex="1" parent="MJ6OcWbf_CeoyiYI_7_P-51">
          <mxGeometry x="77.5" y="30" width="70" height="24.62" as="geometry" />
        </mxCell>
        <mxCell id="MJ6OcWbf_CeoyiYI_7_P-54" value="Publish&lt;br&gt;pre-release" style="rounded=1;whiteSpace=wrap;html=1;" vertex="1" parent="1">
          <mxGeometry x="730" y="90" width="90" height="40" as="geometry" />
        </mxCell>
        <mxCell id="MJ6OcWbf_CeoyiYI_7_P-57" value="" style="endArrow=classic;html=1;rounded=0;exitX=0.5;exitY=1;exitDx=0;exitDy=0;entryX=0.5;entryY=0;entryDx=0;entryDy=0;" edge="1" parent="1" target="MJ6OcWbf_CeoyiYI_7_P-58" source="MJ6OcWbf_CeoyiYI_7_P-54">
          <mxGeometry width="50" height="50" relative="1" as="geometry">
            <mxPoint x="775" y="149.81" as="sourcePoint" />
            <mxPoint x="903" y="189.81" as="targetPoint" />
          </mxGeometry>
        </mxCell>
        <mxCell id="1gW4VibP5cJzynubhTsF-1" style="rounded=0;orthogonalLoop=1;jettySize=auto;html=1;exitX=0;exitY=1;exitDx=0;exitDy=0;entryX=0;entryY=0;entryDx=0;entryDy=0;dashed=1;strokeColor=#CCCCCC;curved=1;" edge="1" parent="1" source="MJ6OcWbf_CeoyiYI_7_P-58" target="cawdL5FQN3Xg8Fe55TqI-3">
          <mxGeometry relative="1" as="geometry">
            <Array as="points">
              <mxPoint x="680" y="290" />
            </Array>
          </mxGeometry>
        </mxCell>
        <mxCell id="MJ6OcWbf_CeoyiYI_7_P-58" value="Deploy on preview" style="rounded=0;whiteSpace=wrap;html=1;fillColor=#ffe6cc;strokeColor=#d79b00;" vertex="1" parent="1">
          <mxGeometry x="712.5" y="162.69" width="125" height="40" as="geometry" />
        </mxCell>
        <mxCell id="MJ6OcWbf_CeoyiYI_7_P-59" value="" style="endArrow=classic;html=1;rounded=0;exitX=0.5;exitY=1;exitDx=0;exitDy=0;entryX=0.5;entryY=0;entryDx=0;entryDy=0;" edge="1" parent="1" source="MJ6OcWbf_CeoyiYI_7_P-58" target="MJ6OcWbf_CeoyiYI_7_P-60">
          <mxGeometry width="50" height="50" relative="1" as="geometry">
            <mxPoint x="902.0699999999999" y="239.81" as="sourcePoint" />
            <mxPoint x="920" y="249.81" as="targetPoint" />
          </mxGeometry>
        </mxCell>
        <mxCell id="MJ6OcWbf_CeoyiYI_7_P-60" value="Wait for approval" style="rounded=0;whiteSpace=wrap;html=1;fillColor=#f5f5f5;strokeColor=#666666;fontColor=#333333;" vertex="1" parent="1">
          <mxGeometry x="712.5" y="240.19" width="125" height="40" as="geometry" />
        </mxCell>
        <mxCell id="3_DWvTIgXyX6NijXdOzo-1" style="rounded=0;orthogonalLoop=1;jettySize=auto;html=1;exitX=0.5;exitY=1;exitDx=0;exitDy=0;entryX=0.5;entryY=0;entryDx=0;entryDy=0;" edge="1" parent="1" source="IM3OFNzmnXksTlmLTsPP-1" target="MJ6OcWbf_CeoyiYI_7_P-43">
          <mxGeometry relative="1" as="geometry" />
        </mxCell>
        <mxCell id="IM3OFNzmnXksTlmLTsPP-1" value="Approve&lt;br&gt;pre-release" style="rounded=1;whiteSpace=wrap;html=1;" vertex="1" parent="1">
          <mxGeometry x="932.75" y="90" width="90" height="40" as="geometry" />
        </mxCell>
        <mxCell id="cawdL5FQN3Xg8Fe55TqI-4" value="" style="group" vertex="1" connectable="0" parent="1">
          <mxGeometry x="700" y="360" width="160" height="30" as="geometry" />
        </mxCell>
        <mxCell id="cawdL5FQN3Xg8Fe55TqI-2" value="" style="shape=crossbar;whiteSpace=wrap;html=1;rounded=1;" vertex="1" parent="cawdL5FQN3Xg8Fe55TqI-4">
          <mxGeometry y="5" width="150" height="20" as="geometry" />
        </mxCell>
        <mxCell id="cawdL5FQN3Xg8Fe55TqI-3" value="v1.0.1-pre.1" style="rounded=1;whiteSpace=wrap;html=1;arcSize=8;rotation=0;fillColor=#ffe6cc;strokeColor=#d79b00;" vertex="1" parent="cawdL5FQN3Xg8Fe55TqI-4">
          <mxGeometry x="39.811428571428564" width="81.87755102040816" height="30" as="geometry" />
        </mxCell>
        <mxCell id="oYSP1l1HNq3XWqHYlLjD-2" value="" style="endArrow=none;dashed=1;html=1;dashPattern=12 12;strokeWidth=2;rounded=0;strokeColor=#999999;" edge="1" parent="1">
          <mxGeometry width="50" height="50" relative="1" as="geometry">
            <mxPoint x="870" y="590" as="sourcePoint" />
            <mxPoint x="870" y="90" as="targetPoint" />
          </mxGeometry>
        </mxCell>
        <mxCell id="MJ6OcWbf_CeoyiYI_7_P-25" value="" style="shape=crossbar;whiteSpace=wrap;html=1;rounded=1;" vertex="1" parent="1">
          <mxGeometry x="10" y="525" width="830" height="20" as="geometry" />
        </mxCell>
        <mxCell id="MJ6OcWbf_CeoyiYI_7_P-26" value="v1.0.0" style="rounded=1;whiteSpace=wrap;html=1;arcSize=8;rotation=0;fillColor=#d5e8d4;strokeColor=#82b366;" vertex="1" parent="1">
          <mxGeometry x="394.25" y="520" width="70" height="30" as="geometry" />
        </mxCell>
        <mxCell id="oYSP1l1HNq3XWqHYlLjD-3" value="" style="group" vertex="1" connectable="0" parent="1">
          <mxGeometry x="890" y="360" width="230" height="30" as="geometry" />
        </mxCell>
        <mxCell id="MJ6OcWbf_CeoyiYI_7_P-28" value="" style="shape=crossbar;whiteSpace=wrap;html=1;rounded=1;" vertex="1" parent="oYSP1l1HNq3XWqHYlLjD-3">
          <mxGeometry y="5" width="230" height="20" as="geometry" />
        </mxCell>
        <mxCell id="MJ6OcWbf_CeoyiYI_7_P-29" value="v1.0.1" style="rounded=1;whiteSpace=wrap;html=1;arcSize=8;rotation=0;fillColor=#ffe6cc;strokeColor=#d79b00;" vertex="1" parent="oYSP1l1HNq3XWqHYlLjD-3">
          <mxGeometry x="75" width="80" height="30" as="geometry" />
        </mxCell>
        <mxCell id="oYSP1l1HNq3XWqHYlLjD-4" value="" style="group" vertex="1" connectable="0" parent="1">
          <mxGeometry x="880" y="520" width="240" height="30" as="geometry" />
        </mxCell>
        <mxCell id="MJ6OcWbf_CeoyiYI_7_P-31" value="" style="shape=crossbar;whiteSpace=wrap;html=1;rounded=1;" vertex="1" parent="oYSP1l1HNq3XWqHYlLjD-4">
          <mxGeometry y="5" width="240" height="20" as="geometry" />
        </mxCell>
        <mxCell id="MJ6OcWbf_CeoyiYI_7_P-32" value="v1.0.1" style="rounded=1;whiteSpace=wrap;html=1;arcSize=8;rotation=0;fillColor=#d5e8d4;strokeColor=#82b366;" vertex="1" parent="oYSP1l1HNq3XWqHYlLjD-4">
          <mxGeometry x="85" width="80" height="30" as="geometry" />
        </mxCell>
      </root>
    </mxGraphModel>
  </diagram>
  <diagram id="km3WNCsTTLrtdWbWigDQ" name="race condition">
    <mxGraphModel dx="778" dy="568" grid="1" gridSize="10" guides="1" tooltips="1" connect="1" arrows="1" fold="1" page="1" pageScale="1" pageWidth="850" pageHeight="1100" math="0" shadow="0">
      <root>
        <mxCell id="0" />
        <mxCell id="1" parent="0" />
        <mxCell id="wItog3sZaCc76y7DZsGg-1" value="" style="shape=flexArrow;endArrow=classic;html=1;rounded=0;fillColor=#CCCCFF;movable=0;resizable=0;rotatable=0;deletable=0;editable=0;locked=1;connectable=0;" edge="1" parent="1">
          <mxGeometry width="50" height="50" relative="1" as="geometry">
            <mxPoint x="10" y="110" as="sourcePoint" />
            <mxPoint x="1110" y="110" as="targetPoint" />
          </mxGeometry>
        </mxCell>
        <mxCell id="wItog3sZaCc76y7DZsGg-2" value="Merge fix" style="rounded=1;whiteSpace=wrap;html=1;" vertex="1" parent="1">
          <mxGeometry x="30.000000000000014" y="90" width="90" height="40" as="geometry" />
        </mxCell>
        <mxCell id="wItog3sZaCc76y7DZsGg-3" value="" style="endArrow=classic;html=1;rounded=0;exitX=0.5;exitY=1;exitDx=0;exitDy=0;entryX=0.5;entryY=0;entryDx=0;entryDy=0;" edge="1" parent="1" source="wItog3sZaCc76y7DZsGg-2" target="wItog3sZaCc76y7DZsGg-30">
          <mxGeometry width="50" height="50" relative="1" as="geometry">
            <mxPoint x="430" y="370" as="sourcePoint" />
            <mxPoint x="190" y="170" as="targetPoint" />
          </mxGeometry>
        </mxCell>
        <mxCell id="wItog3sZaCc76y7DZsGg-4" value="" style="endArrow=none;html=1;rounded=0;strokeColor=#999999;dashed=1;" edge="1" parent="1">
          <mxGeometry width="50" height="50" relative="1" as="geometry">
            <mxPoint x="10" y="298" as="sourcePoint" />
            <mxPoint x="1150" y="298" as="targetPoint" />
          </mxGeometry>
        </mxCell>
        <mxCell id="wItog3sZaCc76y7DZsGg-5" value="Preview" style="rounded=0;whiteSpace=wrap;html=1;fillColor=#ffe6cc;strokeColor=#d79b00;" vertex="1" parent="1">
          <mxGeometry x="13" y="310" width="60" height="20" as="geometry" />
        </mxCell>
        <mxCell id="wItog3sZaCc76y7DZsGg-6" value="" style="endArrow=none;html=1;rounded=0;strokeColor=#999999;dashed=1;" edge="1" parent="1">
          <mxGeometry width="50" height="50" relative="1" as="geometry">
            <mxPoint x="10" y="450" as="sourcePoint" />
            <mxPoint x="1150" y="450" as="targetPoint" />
          </mxGeometry>
        </mxCell>
        <mxCell id="wItog3sZaCc76y7DZsGg-7" value="Live" style="rounded=0;whiteSpace=wrap;html=1;fillColor=#d5e8d4;strokeColor=#82b366;" vertex="1" parent="1">
          <mxGeometry x="10" y="462.31" width="60" height="20" as="geometry" />
        </mxCell>
        <mxCell id="wItog3sZaCc76y7DZsGg-8" value="Publish&lt;br&gt;pre-release" style="rounded=1;whiteSpace=wrap;html=1;" vertex="1" parent="1">
          <mxGeometry x="200" y="90" width="90" height="40" as="geometry" />
        </mxCell>
        <mxCell id="wItog3sZaCc76y7DZsGg-9" value="" style="endArrow=none;dashed=1;html=1;dashPattern=12 12;strokeWidth=2;rounded=0;strokeColor=#999999;" edge="1" parent="1">
          <mxGeometry width="50" height="50" relative="1" as="geometry">
            <mxPoint x="170" y="450" as="sourcePoint" />
            <mxPoint x="169.5" y="70" as="targetPoint" />
          </mxGeometry>
        </mxCell>
        <mxCell id="wItog3sZaCc76y7DZsGg-10" value="" style="endArrow=classic;html=1;rounded=0;exitX=0.5;exitY=1;exitDx=0;exitDy=0;entryX=0.5;entryY=0;entryDx=0;entryDy=0;" edge="1" parent="1" source="wItog3sZaCc76y7DZsGg-8" target="wItog3sZaCc76y7DZsGg-11">
          <mxGeometry width="50" height="50" relative="1" as="geometry">
            <mxPoint x="372.02" y="176.51" as="sourcePoint" />
            <mxPoint x="373" y="170" as="targetPoint" />
          </mxGeometry>
        </mxCell>
        <mxCell id="wItog3sZaCc76y7DZsGg-11" value="Deploy on preview" style="rounded=0;whiteSpace=wrap;html=1;fillColor=#ffe6cc;strokeColor=#d79b00;" vertex="1" parent="1">
          <mxGeometry x="182.5" y="162.69" width="125" height="40" as="geometry" />
        </mxCell>
        <mxCell id="wItog3sZaCc76y7DZsGg-12" value="" style="endArrow=classic;html=1;rounded=0;exitX=0.5;exitY=1;exitDx=0;exitDy=0;entryX=0.5;entryY=0;entryDx=0;entryDy=0;" edge="1" parent="1" source="wItog3sZaCc76y7DZsGg-11" target="wItog3sZaCc76y7DZsGg-13">
          <mxGeometry width="50" height="50" relative="1" as="geometry">
            <mxPoint x="372.07" y="220" as="sourcePoint" />
            <mxPoint x="390" y="230" as="targetPoint" />
          </mxGeometry>
        </mxCell>
        <mxCell id="wItog3sZaCc76y7DZsGg-13" value="Wait for approval" style="rounded=0;whiteSpace=wrap;html=1;fillColor=#f5f5f5;strokeColor=#666666;fontColor=#333333;" vertex="1" parent="1">
          <mxGeometry x="182.5" y="240.19" width="125" height="40" as="geometry" />
        </mxCell>
        <mxCell id="wItog3sZaCc76y7DZsGg-14" value="" style="endArrow=classic;html=1;rounded=0;entryX=0.5;entryY=0;entryDx=0;entryDy=0;exitX=1;exitY=1;exitDx=0;exitDy=0;curved=1;strokeColor=#CCCCCC;dashed=1;" edge="1" parent="1" source="wItog3sZaCc76y7DZsGg-11" target="wItog3sZaCc76y7DZsGg-25">
          <mxGeometry width="50" height="50" relative="1" as="geometry">
            <mxPoint x="420" y="350" as="sourcePoint" />
            <mxPoint x="470" y="300" as="targetPoint" />
            <Array as="points">
              <mxPoint x="400" y="270" />
            </Array>
          </mxGeometry>
        </mxCell>
        <mxCell id="wItog3sZaCc76y7DZsGg-15" value="" style="endArrow=none;dashed=1;html=1;dashPattern=12 12;strokeWidth=2;rounded=0;strokeColor=#999999;" edge="1" parent="1">
          <mxGeometry width="50" height="50" relative="1" as="geometry">
            <mxPoint x="690" y="450" as="sourcePoint" />
            <mxPoint x="690" y="92.31" as="targetPoint" />
          </mxGeometry>
        </mxCell>
        <mxCell id="wItog3sZaCc76y7DZsGg-16" value="Merge feature" style="rounded=1;whiteSpace=wrap;html=1;" vertex="1" parent="1">
          <mxGeometry x="374.25" y="90" width="90" height="40" as="geometry" />
        </mxCell>
        <mxCell id="wItog3sZaCc76y7DZsGg-17" style="rounded=0;orthogonalLoop=1;jettySize=auto;html=1;exitX=0.5;exitY=1;exitDx=0;exitDy=0;entryX=0.5;entryY=0;entryDx=0;entryDy=0;" edge="1" parent="1" source="wItog3sZaCc76y7DZsGg-33" target="wItog3sZaCc76y7DZsGg-20">
          <mxGeometry relative="1" as="geometry" />
        </mxCell>
        <mxCell id="wItog3sZaCc76y7DZsGg-18" style="rounded=0;orthogonalLoop=1;jettySize=auto;html=1;exitX=0.5;exitY=1;exitDx=0;exitDy=0;entryX=0.5;entryY=0;entryDx=0;entryDy=0;" edge="1" parent="1" source="wItog3sZaCc76y7DZsGg-33" target="wItog3sZaCc76y7DZsGg-22">
          <mxGeometry relative="1" as="geometry" />
        </mxCell>
        <mxCell id="wItog3sZaCc76y7DZsGg-19" style="rounded=0;orthogonalLoop=1;jettySize=auto;html=1;entryX=0;entryY=0;entryDx=0;entryDy=0;dashed=1;curved=1;strokeColor=#CCCCCC;exitX=0;exitY=1;exitDx=0;exitDy=0;" edge="1" parent="1" source="wItog3sZaCc76y7DZsGg-20" target="wItog3sZaCc76y7DZsGg-57">
          <mxGeometry relative="1" as="geometry">
            <Array as="points">
              <mxPoint x="890" y="350" />
            </Array>
          </mxGeometry>
        </mxCell>
        <mxCell id="wItog3sZaCc76y7DZsGg-20" value="Deploy on preview" style="rounded=0;whiteSpace=wrap;html=1;fillColor=#ffe6cc;strokeColor=#d79b00;" vertex="1" parent="1">
          <mxGeometry x="900" y="240.19" width="85" height="40" as="geometry" />
        </mxCell>
        <mxCell id="wItog3sZaCc76y7DZsGg-21" style="rounded=0;orthogonalLoop=1;jettySize=auto;html=1;exitX=1;exitY=1;exitDx=0;exitDy=0;entryX=1;entryY=0;entryDx=0;entryDy=0;dashed=1;curved=1;strokeColor=#CCCCCC;" edge="1" parent="1" source="wItog3sZaCc76y7DZsGg-22" target="wItog3sZaCc76y7DZsGg-60">
          <mxGeometry relative="1" as="geometry">
            <Array as="points">
              <mxPoint x="1110" y="380" />
            </Array>
          </mxGeometry>
        </mxCell>
        <mxCell id="wItog3sZaCc76y7DZsGg-22" value="Deploy on live" style="rounded=0;whiteSpace=wrap;html=1;fillColor=#d5e8d4;strokeColor=#82b366;" vertex="1" parent="1">
          <mxGeometry x="995" y="240.19" width="70" height="40" as="geometry" />
        </mxCell>
        <mxCell id="wItog3sZaCc76y7DZsGg-23" value="" style="group" vertex="1" connectable="0" parent="1">
          <mxGeometry x="178.5" y="360" width="501.5" height="30" as="geometry" />
        </mxCell>
        <mxCell id="wItog3sZaCc76y7DZsGg-24" value="" style="shape=crossbar;whiteSpace=wrap;html=1;rounded=1;" vertex="1" parent="wItog3sZaCc76y7DZsGg-23">
          <mxGeometry y="5" width="501.5" height="20" as="geometry" />
        </mxCell>
        <mxCell id="wItog3sZaCc76y7DZsGg-25" value="v1.0.1-pre.0" style="rounded=1;whiteSpace=wrap;html=1;arcSize=8;rotation=0;fillColor=#ffe6cc;strokeColor=#d79b00;" vertex="1" parent="wItog3sZaCc76y7DZsGg-23">
          <mxGeometry x="209.81142857142856" width="81.87755102040816" height="30" as="geometry" />
        </mxCell>
        <mxCell id="wItog3sZaCc76y7DZsGg-26" value="" style="group" vertex="1" connectable="0" parent="1">
          <mxGeometry x="13" y="360" width="180" height="30" as="geometry" />
        </mxCell>
        <mxCell id="wItog3sZaCc76y7DZsGg-27" value="" style="shape=crossbar;whiteSpace=wrap;html=1;rounded=1;" vertex="1" parent="wItog3sZaCc76y7DZsGg-26">
          <mxGeometry y="5" width="150" height="20" as="geometry" />
        </mxCell>
        <mxCell id="wItog3sZaCc76y7DZsGg-28" value="v1.0.0" style="rounded=1;whiteSpace=wrap;html=1;arcSize=8;rotation=0;fillColor=#ffe6cc;strokeColor=#d79b00;" vertex="1" parent="wItog3sZaCc76y7DZsGg-26">
          <mxGeometry x="40" width="70" height="30" as="geometry" />
        </mxCell>
        <mxCell id="wItog3sZaCc76y7DZsGg-29" value="" style="group" vertex="1" connectable="0" parent="1">
          <mxGeometry x="13" y="162.69" width="147.5" height="54.620000000000005" as="geometry" />
        </mxCell>
        <mxCell id="wItog3sZaCc76y7DZsGg-30" value="Create pre-release" style="rounded=0;whiteSpace=wrap;html=1;fillColor=#fff2cc;strokeColor=#d6b656;" vertex="1" parent="wItog3sZaCc76y7DZsGg-29">
          <mxGeometry width="125" height="40" as="geometry" />
        </mxCell>
        <mxCell id="wItog3sZaCc76y7DZsGg-31" value="v1.0.1-pre.0" style="rounded=1;whiteSpace=wrap;html=1;arcSize=8;rotation=0;fillColor=#dae8fc;strokeColor=#6c8ebf;" vertex="1" parent="wItog3sZaCc76y7DZsGg-29">
          <mxGeometry x="77.5" y="30" width="70" height="24.62" as="geometry" />
        </mxCell>
        <mxCell id="wItog3sZaCc76y7DZsGg-32" value="" style="group" vertex="1" connectable="0" parent="1">
          <mxGeometry x="915" y="162.69" width="147.5" height="54.620000000000005" as="geometry" />
        </mxCell>
        <mxCell id="wItog3sZaCc76y7DZsGg-33" value="Release creation" style="rounded=0;whiteSpace=wrap;html=1;fillColor=#fff2cc;strokeColor=#d6b656;" vertex="1" parent="wItog3sZaCc76y7DZsGg-32">
          <mxGeometry width="125" height="40" as="geometry" />
        </mxCell>
        <mxCell id="wItog3sZaCc76y7DZsGg-34" value="v1.1.0" style="rounded=1;whiteSpace=wrap;html=1;arcSize=8;rotation=0;fillColor=#dae8fc;strokeColor=#6c8ebf;" vertex="1" parent="wItog3sZaCc76y7DZsGg-32">
          <mxGeometry x="97.5" y="30" width="50" height="24.62" as="geometry" />
        </mxCell>
        <mxCell id="wItog3sZaCc76y7DZsGg-35" value="Create pre-release" style="rounded=0;whiteSpace=wrap;html=1;fillColor=#fff2cc;strokeColor=#d6b656;" vertex="1" parent="1">
          <mxGeometry x="356.75" y="162.69" width="125" height="40" as="geometry" />
        </mxCell>
        <mxCell id="wItog3sZaCc76y7DZsGg-36" value="" style="endArrow=classic;html=1;rounded=0;exitX=0.5;exitY=1;exitDx=0;exitDy=0;entryX=0.5;entryY=0;entryDx=0;entryDy=0;" edge="1" parent="1" source="wItog3sZaCc76y7DZsGg-16" target="wItog3sZaCc76y7DZsGg-35">
          <mxGeometry width="50" height="50" relative="1" as="geometry">
            <mxPoint x="425" y="129.69" as="sourcePoint" />
            <mxPoint x="425" y="162.69" as="targetPoint" />
          </mxGeometry>
        </mxCell>
        <mxCell id="wItog3sZaCc76y7DZsGg-37" value="Approve&lt;br style=&quot;border-color: var(--border-color);&quot;&gt;pre-release" style="rounded=1;whiteSpace=wrap;html=1;" vertex="1" parent="1">
          <mxGeometry x="547.5" y="90" width="90" height="40" as="geometry" />
        </mxCell>
        <mxCell id="wItog3sZaCc76y7DZsGg-38" value="" style="endArrow=classic;html=1;rounded=0;exitX=0.5;exitY=1;exitDx=0;exitDy=0;entryX=0.5;entryY=0;entryDx=0;entryDy=0;" edge="1" parent="1" source="wItog3sZaCc76y7DZsGg-37" target="wItog3sZaCc76y7DZsGg-40">
          <mxGeometry width="50" height="50" relative="1" as="geometry">
            <mxPoint x="937" y="370" as="sourcePoint" />
            <mxPoint x="697" y="170" as="targetPoint" />
          </mxGeometry>
        </mxCell>
        <mxCell id="wItog3sZaCc76y7DZsGg-42" value="Publish&lt;br&gt;pre-release" style="rounded=1;whiteSpace=wrap;html=1;" vertex="1" parent="1">
          <mxGeometry x="730" y="90" width="90" height="40" as="geometry" />
        </mxCell>
        <mxCell id="wItog3sZaCc76y7DZsGg-43" value="" style="endArrow=classic;html=1;rounded=0;exitX=0.5;exitY=1;exitDx=0;exitDy=0;entryX=0.5;entryY=0;entryDx=0;entryDy=0;" edge="1" parent="1" source="wItog3sZaCc76y7DZsGg-42" target="wItog3sZaCc76y7DZsGg-44">
          <mxGeometry width="50" height="50" relative="1" as="geometry">
            <mxPoint x="775" y="149.81" as="sourcePoint" />
            <mxPoint x="903" y="189.81" as="targetPoint" />
          </mxGeometry>
        </mxCell>
        <mxCell id="_VVeUaF79qOngku-N7yc-1" style="rounded=0;orthogonalLoop=1;jettySize=auto;html=1;exitX=0;exitY=1;exitDx=0;exitDy=0;entryX=0;entryY=0;entryDx=0;entryDy=0;curved=1;dashed=1;strokeColor=#CCCCCC;" edge="1" parent="1" source="wItog3sZaCc76y7DZsGg-44" target="wItog3sZaCc76y7DZsGg-51">
          <mxGeometry relative="1" as="geometry">
            <Array as="points">
              <mxPoint x="680" y="300" />
            </Array>
          </mxGeometry>
        </mxCell>
        <mxCell id="wItog3sZaCc76y7DZsGg-44" value="Deploy on preview" style="rounded=0;whiteSpace=wrap;html=1;fillColor=#ffe6cc;strokeColor=#d79b00;" vertex="1" parent="1">
          <mxGeometry x="712.5" y="162.69" width="125" height="40" as="geometry" />
        </mxCell>
        <mxCell id="wItog3sZaCc76y7DZsGg-45" value="" style="endArrow=classic;html=1;rounded=0;exitX=0.5;exitY=1;exitDx=0;exitDy=0;entryX=0.5;entryY=0;entryDx=0;entryDy=0;" edge="1" parent="1" source="wItog3sZaCc76y7DZsGg-44" target="wItog3sZaCc76y7DZsGg-46">
          <mxGeometry width="50" height="50" relative="1" as="geometry">
            <mxPoint x="902.0699999999999" y="239.81" as="sourcePoint" />
            <mxPoint x="920" y="249.81" as="targetPoint" />
          </mxGeometry>
        </mxCell>
        <mxCell id="wItog3sZaCc76y7DZsGg-46" value="Wait for approval" style="rounded=0;whiteSpace=wrap;html=1;fillColor=#f5f5f5;strokeColor=#666666;fontColor=#333333;" vertex="1" parent="1">
          <mxGeometry x="712.5" y="240.19" width="125" height="40" as="geometry" />
        </mxCell>
        <mxCell id="wItog3sZaCc76y7DZsGg-47" style="rounded=0;orthogonalLoop=1;jettySize=auto;html=1;exitX=0.5;exitY=1;exitDx=0;exitDy=0;entryX=0.5;entryY=0;entryDx=0;entryDy=0;" edge="1" parent="1" source="wItog3sZaCc76y7DZsGg-48" target="wItog3sZaCc76y7DZsGg-33">
          <mxGeometry relative="1" as="geometry" />
        </mxCell>
        <mxCell id="wItog3sZaCc76y7DZsGg-48" value="Approve&lt;br&gt;pre-release" style="rounded=1;whiteSpace=wrap;html=1;" vertex="1" parent="1">
          <mxGeometry x="932.75" y="90" width="90" height="40" as="geometry" />
        </mxCell>
        <mxCell id="wItog3sZaCc76y7DZsGg-49" value="" style="group" vertex="1" connectable="0" parent="1">
          <mxGeometry x="700" y="360" width="160" height="30" as="geometry" />
        </mxCell>
        <mxCell id="wItog3sZaCc76y7DZsGg-50" value="" style="shape=crossbar;whiteSpace=wrap;html=1;rounded=1;" vertex="1" parent="wItog3sZaCc76y7DZsGg-49">
          <mxGeometry y="5" width="150" height="20" as="geometry" />
        </mxCell>
        <mxCell id="wItog3sZaCc76y7DZsGg-51" value="v1.0.1-pre.1" style="rounded=1;whiteSpace=wrap;html=1;arcSize=8;rotation=0;fillColor=#ffe6cc;strokeColor=#d79b00;" vertex="1" parent="wItog3sZaCc76y7DZsGg-49">
          <mxGeometry x="39.811428571428564" width="81.87755102040816" height="30" as="geometry" />
        </mxCell>
        <mxCell id="wItog3sZaCc76y7DZsGg-52" value="" style="endArrow=none;dashed=1;html=1;dashPattern=12 12;strokeWidth=2;rounded=0;strokeColor=#999999;" edge="1" parent="1">
          <mxGeometry width="50" height="50" relative="1" as="geometry">
            <mxPoint x="870" y="590" as="sourcePoint" />
            <mxPoint x="870" y="90" as="targetPoint" />
          </mxGeometry>
        </mxCell>
        <mxCell id="wItog3sZaCc76y7DZsGg-53" value="" style="shape=crossbar;whiteSpace=wrap;html=1;rounded=1;" vertex="1" parent="1">
          <mxGeometry x="10" y="525" width="830" height="20" as="geometry" />
        </mxCell>
        <mxCell id="wItog3sZaCc76y7DZsGg-54" value="v1.0.0" style="rounded=1;whiteSpace=wrap;html=1;arcSize=8;rotation=0;fillColor=#d5e8d4;strokeColor=#82b366;" vertex="1" parent="1">
          <mxGeometry x="394.25" y="520" width="70" height="30" as="geometry" />
        </mxCell>
        <mxCell id="gKlZPm7BkK4T4skEQaCD-2" style="rounded=0;orthogonalLoop=1;jettySize=auto;html=1;exitX=0.75;exitY=1;exitDx=0;exitDy=0;entryX=0.5;entryY=0;entryDx=0;entryDy=0;curved=1;strokeColor=#FFD966;" edge="1" parent="1" source="Qy9AwFushTjOhtzXjOPn-1" target="gKlZPm7BkK4T4skEQaCD-1">
          <mxGeometry relative="1" as="geometry">
            <mxPoint x="550" y="500" as="targetPoint" />
            <Array as="points">
              <mxPoint x="580" y="410" />
            </Array>
          </mxGeometry>
        </mxCell>
        <mxCell id="Qy9AwFushTjOhtzXjOPn-1" value="v1.0.1-pre.1" style="rounded=1;whiteSpace=wrap;html=1;arcSize=8;rotation=0;fillColor=#dae8fc;strokeColor=#6c8ebf;" vertex="1" parent="1">
          <mxGeometry x="430" y="192.69" width="70" height="24.62" as="geometry" />
        </mxCell>
        <mxCell id="wItog3sZaCc76y7DZsGg-40" value="CircleCI job automatically aborted" style="rounded=0;whiteSpace=wrap;html=1;fillColor=#f8cecc;strokeColor=#b85450;" vertex="1" parent="1">
          <mxGeometry x="530" y="162.69" width="125" height="40" as="geometry" />
        </mxCell>
        <mxCell id="gKlZPm7BkK4T4skEQaCD-1" value="Even if merge is.a feature the draft version will &lt;br&gt;stick to preview pre-release: v1.0.1-pre.x" style="rounded=0;whiteSpace=wrap;html=1;fillColor=#fff2cc;strokeColor=#d6b656;verticalAlign=top;" vertex="1" parent="1">
          <mxGeometry x="441.25" y="600" width="302.5" height="40" as="geometry" />
        </mxCell>
        <mxCell id="0umGPDizAskwdsRYNzov-1" value="Final release version will use appropriate semver here since all pre-release are removed before generating it" style="rounded=0;whiteSpace=wrap;html=1;fillColor=#fff2cc;strokeColor=#d6b656;verticalAlign=top;" vertex="1" parent="1">
          <mxGeometry x="880" y="600" width="270" height="50" as="geometry" />
        </mxCell>
        <mxCell id="0umGPDizAskwdsRYNzov-2" style="rounded=0;orthogonalLoop=1;jettySize=auto;html=1;exitX=1;exitY=1;exitDx=0;exitDy=0;entryX=0.75;entryY=0;entryDx=0;entryDy=0;curved=1;strokeColor=#FFD966;" edge="1" parent="1" source="wItog3sZaCc76y7DZsGg-34" target="0umGPDizAskwdsRYNzov-1">
          <mxGeometry relative="1" as="geometry">
            <mxPoint x="603" y="610" as="targetPoint" />
            <mxPoint x="493" y="227" as="sourcePoint" />
            <Array as="points">
              <mxPoint x="1270" y="400" />
            </Array>
          </mxGeometry>
        </mxCell>
        <mxCell id="0umGPDizAskwdsRYNzov-3" value="" style="group" vertex="1" connectable="0" parent="1">
          <mxGeometry x="880" y="520" width="240" height="30" as="geometry" />
        </mxCell>
        <mxCell id="wItog3sZaCc76y7DZsGg-59" value="" style="shape=crossbar;whiteSpace=wrap;html=1;rounded=1;" vertex="1" parent="0umGPDizAskwdsRYNzov-3">
          <mxGeometry y="5" width="240" height="20" as="geometry" />
        </mxCell>
        <mxCell id="wItog3sZaCc76y7DZsGg-60" value="v1.1.0" style="rounded=1;whiteSpace=wrap;html=1;arcSize=8;rotation=0;fillColor=#d5e8d4;strokeColor=#82b366;" vertex="1" parent="0umGPDizAskwdsRYNzov-3">
          <mxGeometry x="85" width="80" height="30" as="geometry" />
        </mxCell>
        <mxCell id="0umGPDizAskwdsRYNzov-4" value="" style="group" vertex="1" connectable="0" parent="1">
          <mxGeometry x="880" y="360" width="240" height="30" as="geometry" />
        </mxCell>
        <mxCell id="wItog3sZaCc76y7DZsGg-56" value="" style="shape=crossbar;whiteSpace=wrap;html=1;rounded=1;" vertex="1" parent="0umGPDizAskwdsRYNzov-4">
          <mxGeometry y="5" width="240" height="20" as="geometry" />
        </mxCell>
        <mxCell id="wItog3sZaCc76y7DZsGg-57" value="v1.1.0" style="rounded=1;whiteSpace=wrap;html=1;arcSize=8;rotation=0;fillColor=#ffe6cc;strokeColor=#d79b00;" vertex="1" parent="0umGPDizAskwdsRYNzov-4">
          <mxGeometry x="85" width="80" height="30" as="geometry" />
        </mxCell>
      </root>
    </mxGraphModel>
  </diagram>
</mxfile>
